<svg width="29" height="29" viewBox="0 0 29 29" fill="none" xmlns="http://www.w3.org/2000/svg">
<circle cx="14.5" cy="14.5" r="13.9" fill="white" stroke="#F0F1F2" stroke-width="1.2"/>
<path d="M19.9453 13.6282H15.006V8.68889C15.006 8.50618 14.9334 8.33096 14.8042 8.20177C14.675 8.07258 14.4998 8 14.3171 8C14.1344 8 13.9592 8.07258 13.83 8.20177C13.7008 8.33096 13.6282 8.50618 13.6282 8.68889V13.6282H8.68889C8.50618 13.6282 8.33096 13.7008 8.20177 13.83C8.07258 13.9592 8 14.1344 8 14.3171C8 14.4998 8.07258 14.675 8.20177 14.8042C8.33096 14.9334 8.50618 15.006 8.68889 15.006H13.6282V19.9453C13.6282 20.128 13.7008 20.3033 13.83 20.4325C13.9592 20.5616 14.1344 20.6342 14.3171 20.6342C14.4998 20.6342 14.675 20.5616 14.8042 20.4325C14.9334 20.3033 15.006 20.128 15.006 19.9453V15.006H19.9453C20.128 15.006 20.3033 14.9334 20.4325 14.8042C20.5616 14.675 20.6342 14.4998 20.6342 14.3171C20.6342 14.1344 20.5616 13.9592 20.4325 13.83C20.3033 13.7008 20.128 13.6282 19.9453 13.6282Z" fill="#D2D2D2"/>
</svg>
