<svg width="43" height="43" viewBox="0 0 43 43" fill="none" xmlns="http://www.w3.org/2000/svg">
<path d="M5.375 14.3333C5.375 15.3187 6.18125 16.125 7.16667 16.125C8.15208 16.125 8.95833 15.3187 8.95833 14.3333V10.75H12.5417C13.5271 10.75 14.3333 9.94374 14.3333 8.95832C14.3333 7.97291 13.5271 7.16666 12.5417 7.16666H8.95833V3.58332C8.95833 2.59791 8.15208 1.79166 7.16667 1.79166C6.18125 1.79166 5.375 2.59791 5.375 3.58332V7.16666H1.79167C0.80625 7.16666 0 7.97291 0 8.95832C0 9.94374 0.80625 10.75 1.79167 10.75H5.375V14.3333Z" fill="black"/>
<path d="M23.291 30.4583C26.2595 30.4583 28.666 28.0519 28.666 25.0833C28.666 22.1148 26.2595 19.7083 23.291 19.7083C20.3225 19.7083 17.916 22.1148 17.916 25.0833C17.916 28.0519 20.3225 30.4583 23.291 30.4583Z" fill="black"/>
<path d="M37.625 10.75H31.9454L29.7237 8.33124C29.3899 7.96465 28.9832 7.67174 28.5297 7.47122C28.0762 7.27069 27.5859 7.16696 27.09 7.16666H15.6233C15.9279 7.70416 16.125 8.29541 16.125 8.95832C16.125 10.9292 14.5125 12.5417 12.5417 12.5417H10.75V14.3333C10.75 16.3042 9.1375 17.9167 7.16667 17.9167C6.50375 17.9167 5.9125 17.7196 5.375 17.415V35.8333C5.375 37.8042 6.9875 39.4167 8.95833 39.4167H37.625C39.5958 39.4167 41.2083 37.8042 41.2083 35.8333V14.3333C41.2083 12.3625 39.5958 10.75 37.625 10.75ZM23.2917 34.0417C18.3467 34.0417 14.3333 30.0283 14.3333 25.0833C14.3333 20.1383 18.3467 16.125 23.2917 16.125C28.2367 16.125 32.25 20.1383 32.25 25.0833C32.25 30.0283 28.2367 34.0417 23.2917 34.0417Z" fill="black"/>
</svg>
