<svg width="26" height="26" viewBox="0 0 26 26" fill="none" xmlns="http://www.w3.org/2000/svg">
<circle cx="13" cy="13" r="13" fill="#F4F6FB"/>
<path d="M17.4547 12.4047H13.5953V8.54526C13.5953 8.38738 13.5325 8.23598 13.4209 8.12435C13.3093 8.01271 13.1579 7.95 13 7.95C12.8421 7.95 12.6907 8.01271 12.5791 8.12435C12.4675 8.23598 12.4047 8.38738 12.4047 8.54526V12.4047H8.54526C8.38738 12.4047 8.23598 12.4675 8.12435 12.5791C8.01271 12.6907 7.95 12.8421 7.95 13C7.95 13.1579 8.01271 13.3093 8.12435 13.4209C8.23598 13.5325 8.38738 13.5953 8.54526 13.5953H12.4047V17.4547C12.4047 17.6126 12.4675 17.764 12.5791 17.8757C12.6907 17.9873 12.8421 18.05 13 18.05C13.1579 18.05 13.3093 17.9873 13.4209 17.8757C13.5325 17.764 13.5953 17.6126 13.5953 17.4547V13.5953H17.4547C17.6126 13.5953 17.764 13.5325 17.8757 13.4209C17.9873 13.3093 18.05 13.1579 18.05 13C18.05 12.8421 17.9873 12.6907 17.8757 12.5791C17.764 12.4675 17.6126 12.4047 17.4547 12.4047Z" fill="#2869CB" stroke="#2869CB" stroke-width="0.1"/>
</svg>
