<svg width="17" height="16" viewBox="0 0 17 16" fill="none" xmlns="http://www.w3.org/2000/svg">
<path d="M13.6498 2.35C12.9097 1.60485 12.0294 1.01356 11.0597 0.610231C10.09 0.206901 9.05001 -0.000494346 7.99977 8.9407e-07C3.57977 8.9407e-07 0.00976562 3.58 0.00976562 8C0.00976562 12.42 3.57977 16 7.99977 16C11.2564 16 14.0404 14.0561 15.287 11.2666C15.5645 10.6455 15.0668 10 14.3866 10V10C13.9451 10 13.5596 10.2829 13.3629 10.6782C12.9238 11.5607 12.2718 12.3249 11.4611 12.8988C10.4491 13.6153 9.23971 14 7.99977 14C4.68977 14 1.99977 11.31 1.99977 8C1.99977 4.69 4.68977 2 7.99977 2C9.65977 2 11.1398 2.69 12.2198 3.78L10.5761 5.42384C10.1532 5.84673 10.4211 6.57086 11.0174 6.61673L15.2947 6.94576C15.6829 6.97563 16.0209 6.68293 16.0468 6.29441L16.376 1.35886C16.419 0.713938 15.6397 0.360255 15.1826 0.817276L13.6498 2.35Z" fill="#0058DD"/>
</svg>
