<svg width="13" height="13" viewBox="0 0 13 13" fill="none" xmlns="http://www.w3.org/2000/svg">
<g clip-path="url(#clip0_11_876)">
<path d="M1.3292 4.30056C1.48156 4.14824 1.68819 4.06268 1.90363 4.06268C2.11908 4.06268 2.32571 4.14824 2.47807 4.30056L6.49995 8.32244L10.5218 4.30056C10.6751 4.15256 10.8803 4.07067 11.0933 4.07252C11.3064 4.07437 11.5102 4.15982 11.6608 4.31046C11.8114 4.46111 11.8969 4.66489 11.8987 4.87793C11.9006 5.09096 11.8187 5.2962 11.6707 5.44944L7.07438 10.0458C6.92202 10.1981 6.71539 10.2836 6.49995 10.2836C6.2845 10.2836 6.07788 10.1981 5.92551 10.0458L1.3292 5.44944C1.17688 5.29707 1.09131 5.09045 1.09131 4.875C1.09131 4.65956 1.17688 4.45293 1.3292 4.30056Z" fill="black"/>
</g>
<defs>
<clipPath id="clip0_11_876">
<rect width="13" height="13" fill="white"/>
</clipPath>
</defs>
</svg>
