<svg width="8" height="14" viewBox="0 0 8 14" fill="none" xmlns="http://www.w3.org/2000/svg">
<path d="M4.75067 7.03304L4.77693 7.00159L4.75126 6.96965L0.435879 1.60176L0.435734 1.60158C0.356908 1.50445 0.29804 1.39268 0.262518 1.2727C0.226996 1.15273 0.215518 1.02691 0.228747 0.902478C0.241975 0.778048 0.279647 0.657462 0.339598 0.547651C0.399549 0.43784 0.480595 0.34097 0.578076 0.262609L0.578282 0.262442C0.675346 0.183564 0.787031 0.124662 0.906914 0.0891186C1.0268 0.0535754 1.15252 0.0420919 1.27685 0.0553278C1.40118 0.0685636 1.52168 0.106258 1.63141 0.166245C1.74114 0.226233 1.83794 0.307331 1.91625 0.404881L1.91628 0.40492L6.74112 6.40257L6.74144 6.40297C6.88102 6.57288 6.95732 6.78602 6.95732 7.00598C6.95732 7.22588 6.88106 7.43896 6.74156 7.60886C6.74152 7.6089 6.74148 7.60895 6.74144 7.60899L1.747 13.6064L1.74692 13.6065C1.66726 13.7026 1.56942 13.7821 1.45902 13.8404C1.34861 13.8986 1.22781 13.9345 1.10353 13.946C0.979243 13.9575 0.853919 13.9443 0.734733 13.9072C0.615548 13.8701 0.504839 13.8099 0.408954 13.7299L0.408442 13.7295C0.299586 13.6411 0.211641 13.5297 0.150931 13.4033C0.0902351 13.2769 0.0582684 13.1386 0.0573257 12.9984C0.0569219 12.7766 0.134099 12.5617 0.275465 12.3909C0.275506 12.3909 0.275548 12.3908 0.27559 12.3908L4.75067 7.03304Z" fill="#969696" stroke="white" stroke-width="0.1"/>
</svg>
