<svg width="12" height="19" viewBox="0 0 12 19" fill="none" xmlns="http://www.w3.org/2000/svg">
<path d="M10.8 0H1.2C0.881741 0 0.576516 0.125105 0.351472 0.347793C0.126429 0.570482 3.82878e-07 0.872512 3.82878e-07 1.18744V17.7701C-0.000189566 18.0054 0.0703006 18.2355 0.202521 18.4311C0.334741 18.6268 0.522727 18.7791 0.742611 18.8688C0.962495 18.9585 1.20436 18.9815 1.43749 18.935C1.67063 18.8884 1.88451 18.7743 2.052 18.6072L5.976 14.7361L9.954 18.6547C10.1222 18.8201 10.3361 18.9325 10.5688 18.9777C10.8014 19.023 11.0424 18.999 11.2613 18.9088C11.4802 18.8186 11.6672 18.6662 11.7987 18.4709C11.9301 18.2757 12.0002 18.0462 12 17.8116V1.18744C12 0.872512 11.8736 0.570482 11.6485 0.347793C11.4235 0.125105 11.1183 0 10.8 0Z" fill="#D0D0D0"/>
</svg>
