<svg width="26" height="26" viewBox="0 0 26 26" fill="none" xmlns="http://www.w3.org/2000/svg">
<g clip-path="url(#clip0_451_42)">
<path d="M4.36665 22.443L12.5701 14.2944L20.7187 22.4978C20.9458 22.7264 21.2543 22.8554 21.5765 22.8565C21.8987 22.8576 22.2081 22.7306 22.4367 22.5036C22.6653 22.2765 22.7943 21.968 22.7954 21.6458C22.7964 21.3236 22.6695 21.0142 22.4424 20.7856L14.2938 12.5822L22.4973 4.43353C22.7259 4.20648 22.8549 3.89793 22.856 3.57574C22.857 3.25451 22.7308 2.94596 22.505 2.71758C22.3971 2.60092 22.2655 2.50858 22.119 2.44674C21.9717 2.38453 21.8128 2.35462 21.6529 2.35902C21.493 2.36343 21.336 2.40206 21.1923 2.47229C21.051 2.54139 20.9258 2.63951 20.825 2.76022L12.6266 10.9038L4.43301 2.65498C4.20595 2.4264 3.8974 2.29737 3.57522 2.29629C3.25303 2.29521 2.94362 2.42216 2.71504 2.64921C2.48646 2.87627 2.35744 3.18482 2.35635 3.50701C2.35528 3.82919 2.48223 4.1386 2.70928 4.36718L10.8579 12.5706L2.65444 20.7193C2.42586 20.9463 2.29684 21.2549 2.29576 21.577C2.29468 21.8992 2.42163 22.2086 2.64868 22.4372C2.87573 22.6658 3.18429 22.7948 3.50647 22.7959C3.82865 22.797 4.13807 22.67 4.36665 22.443Z" fill="#C5C5C5" stroke="#C5C5C5" stroke-width="0.3"/>
</g>
<defs>
<clipPath id="clip0_451_42">
<rect width="26" height="26" fill="white" transform="translate(26) rotate(90)"/>
</clipPath>
</defs>
</svg>
