<svg width="15" height="14" viewBox="0 0 15 14" fill="none" xmlns="http://www.w3.org/2000/svg">
<path d="M1.63808 13.7107L7.27445 8.11201L12.8732 13.7484C13.0081 13.8843 13.1916 13.961 13.3831 13.9616C13.5747 13.9623 13.7586 13.8868 13.8945 13.7518C14.0304 13.6168 14.1071 13.4334 14.1078 13.2418C14.1084 13.0503 14.0329 12.8663 13.8979 12.7304L8.29925 7.09406L13.9356 1.49536C14.0715 1.36037 14.1482 1.17693 14.1489 0.985384C14.1495 0.79384 14.074 0.609885 13.939 0.473989C13.8754 0.404884 13.7977 0.350219 13.7112 0.313677C13.6247 0.277136 13.5313 0.259568 13.4374 0.262157C13.3435 0.264746 13.2513 0.287432 13.1669 0.328686C13.0825 0.36994 13.0079 0.428802 12.9482 0.501308L7.31184 6.10001L1.6826 0.432892C1.54761 0.296995 1.36417 0.220288 1.17263 0.219646C0.981082 0.219004 0.797127 0.294479 0.661231 0.429467C0.525335 0.564455 0.448627 0.747899 0.447985 0.939443C0.447343 1.13099 0.522819 1.31494 0.657806 1.45084L6.25651 7.08721L0.62013 12.6859C0.484234 12.8209 0.407526 13.0043 0.406884 13.1959C0.406241 13.3874 0.481717 13.5714 0.616705 13.7073C0.751693 13.8432 0.935137 13.9199 1.12668 13.9205C1.31822 13.9212 1.50218 13.8457 1.63808 13.7107Z" fill="#C5C5C5"/>
</svg>
