<svg width="59" height="59" viewBox="0 0 59 59" fill="none" xmlns="http://www.w3.org/2000/svg">
<path fill-rule="evenodd" clip-rule="evenodd" d="M12.3741 34.4089C12.3741 34.4089 6.77397 19.0077 14.1364 16.2771C21.4987 13.5464 24.8275 25.4515 22.9478 31.5216C21.068 37.5916 20.7547 41.1945 20.7547 41.1945C20.7547 41.1945 32.8373 49.1161 32.7198 51.3777C32.6023 53.6394 35.3047 56.2262 35.3047 56.2262L27.7866 57.8309L13.7627 57.9269C13.7627 57.9269 13.0284 37.4504 12.3741 34.4089Z" fill="url(#paint0_linear_301_35)"/>
<path fill-rule="evenodd" clip-rule="evenodd" d="M6.17673 53.4338C6.17673 53.4338 -8.43893 56.0527 8.88256 58.0131C8.88256 58.0131 6.4819 55.9195 6.17673 53.4338Z" fill="#3E495A"/>
<path fill-rule="evenodd" clip-rule="evenodd" d="M38.771 54.7233C38.771 54.7233 41.3959 55.5939 42.0521 54.8037C42.5506 54.2033 41.3695 52.255 41.3695 52.255C41.3695 52.255 43.5287 51.7904 44.1893 50.9724C44.1893 50.9724 47.1925 55.7799 45.0631 57.1818C44.0479 57.8504 42.067 58.7417 36.6444 57.8009C36.6444 57.8009 38.2512 57.2632 38.771 54.7233Z" fill="#303A49"/>
<path fill-rule="evenodd" clip-rule="evenodd" d="M12.012 7.60838L12.0549 4.21303C12.0549 4.21303 11.958 1.43835 12.9889 1.19192C14.0199 0.945494 15.924 2.99383 16.1788 3.22733C16.4336 3.46083 17.5944 4.48528 17.5944 4.48528C17.5944 4.48528 13.9242 5.64396 12.012 7.60838Z" fill="#303A49"/>
<path fill-rule="evenodd" clip-rule="evenodd" d="M25.2168 5.55837C25.2168 5.55837 26.8541 3.61679 28.165 2.23585C29.1101 1.2402 30.9581 -0.516497 31.6788 1.65393C32.0043 2.63407 32.0069 5.26695 31.9 8.10572C31.7854 11.1484 31.6713 13.9849 31.6713 13.9849L31.6356 14.8783C31.6356 14.8783 30.6117 8.58769 25.2168 5.55837Z" fill="#303A49"/>
<path fill-rule="evenodd" clip-rule="evenodd" d="M19.7976 3.94196C28.3227 2.98323 31.6537 14.1922 31.6537 14.1922L32.0471 41.9562C32.0471 41.9562 33.5899 54.222 29.4423 53.5011C28.2446 53.2929 27.6462 50.8348 26.8656 48.3767C26.0852 45.9185 25.846 49.3472 25.7814 49.2698C25.7169 49.1925 24.9574 53.07 24.9574 53.07L24.7603 54.1429C24.7603 54.1429 26.4861 55.0909 25.8683 56.9439C25.2504 58.797 21.6183 58.1059 21.0319 57.973C20.4454 57.84 19.6767 56.3182 19.6704 55.4051C19.664 54.4921 19.6268 49.1809 19.6268 49.1809C19.6268 49.1809 19.9572 40.535 20.203 38.7386C20.4488 36.9421 21.1817 33.194 21.438 32.4991C21.6945 31.8041 21.9407 30.7583 22.1435 30.2367C22.3463 29.7151 22.2884 27.7062 21.8924 26.1801C21.4964 24.6541 20.8031 21.5081 19.9153 19.9772C19.0274 18.4463 17.7493 16.5337 15.2891 16.2509C12.829 15.9682 10.8307 19.6993 10.859 23.3379C10.8872 26.9766 11.1495 29.2749 11.3766 30.5829C11.6035 31.8909 11.7046 32.3957 12.2119 33.4183C12.7193 34.4408 13.6819 36.5322 13.8714 38.8413C14.0609 41.1503 14.5108 48.2665 14.5108 48.2665L14.7414 53.3194L14.86 56.0225C14.86 56.0225 14.6991 57.9582 13.5692 57.9851C12.4393 58.012 9.62559 57.9945 9.62559 57.9945C9.62559 57.9945 6.92116 55.9971 10.4591 53.9288C10.4591 53.9288 8.02302 50.0652 7.70961 46.5477C7.43239 43.4362 8.06581 28.4706 8.00092 22.7738C7.8759 11.8019 10.5915 4.97729 19.7976 3.94196Z" fill="#5B626E"/>
<path fill-rule="evenodd" clip-rule="evenodd" d="M31.5347 21.0127L31.6627 51.2348C31.6627 51.2348 31.6229 53.2039 29.1444 53.3719C26.6659 53.5401 26.7031 54.8439 26.7335 55.5931C26.7638 56.3423 26.9325 57.8181 27.7532 57.957L35.4945 57.9736C35.4945 57.9736 38.0364 58.6607 39.0585 54.813C40.0806 50.9654 39.6632 52.5027 39.6632 52.5027C39.6632 52.5027 41.2068 46.2188 40.6425 40.9544C40.0782 35.6899 38.6154 30.0188 36.6905 27.0218C34.7655 24.0249 33.5024 22.4169 31.5347 21.0127Z" fill="url(#paint1_linear_301_35)"/>
<path fill-rule="evenodd" clip-rule="evenodd" d="M7.99743 28.6675L8.08973 44.7468C8.08973 44.7468 7.65239 50.1922 10.8147 53.8427C10.8147 53.8427 7.50527 55.5582 9.9913 57.9851L8.80375 57.9983C8.80375 57.9983 7.65661 57.5996 6.09293 54.4494C1.79709 45.7951 7.50364 29.7976 7.99743 28.6675Z" fill="#474E5A"/>
<path fill-rule="evenodd" clip-rule="evenodd" d="M40.5015 47.5761C40.5015 47.5761 43.8669 46.0127 42.7976 42.4165C41.7284 38.8202 40.5896 35.1519 40.4304 34.3262C40.2713 33.5008 39.3861 29.7094 40.4503 27.7149C41.5145 25.7204 42.8263 23.1489 47.4185 22.8982C52.0107 22.6476 55.3365 25.3191 55.3365 25.3191C55.3365 25.3191 58.956 28.0961 58.475 31.8954C57.9929 35.6946 56.435 37.1295 56.435 37.1295C56.435 37.1295 54.055 38.9204 52.8395 36.2504C52.1732 34.7867 54.0409 31.9887 54.0636 31.5297C54.0864 31.0708 54.3626 28.6117 49.505 27.5992C44.6464 26.5866 44.5121 30.3366 44.6464 31.4447C44.7808 32.5528 45.1834 34.4233 46.6385 39.1281C48.0934 43.8328 47.1856 46.5705 47.1856 46.5705C47.1856 46.5705 46.489 49.328 44.6325 50.8108C42.7764 52.2935 41.3951 52.5671 39.7614 52.5013L39.5059 52.4165C39.5059 52.4165 40.1893 49.6246 40.5015 47.5761Z" fill="url(#paint2_linear_301_35)"/>
<path fill-rule="evenodd" clip-rule="evenodd" d="M40.6393 46.149C40.6393 46.149 41.4469 45.2355 42.8519 44.928C42.8519 44.928 42.1586 47.5762 40.4922 47.6479L40.6393 46.149Z" fill="#474E5A"/>
<path fill-rule="evenodd" clip-rule="evenodd" d="M47.4056 44.5486C47.4056 44.5486 47.0633 46.855 46.657 47.5043C46.657 47.5043 49.1346 47.636 50.0793 48.3034C50.0793 48.3034 51.1843 48.7506 50.4357 49.2295C50.4357 49.2295 49.3155 49.9747 50.0858 51.2221C50.0858 51.2221 51.1442 52.7586 52.6067 51.4217C52.6067 51.4217 54.3639 50.1827 53.729 47.7464C53.729 47.7464 53.092 45.886 50.6816 45.1569C50.6816 45.1569 49.1996 44.6597 47.4056 44.5486Z" fill="#303A49"/>
<path fill-rule="evenodd" clip-rule="evenodd" d="M16.9433 8.63466C16.9779 8.32217 17.7639 8.08501 18.4199 8.15774C19.076 8.23047 19.8128 8.53266 19.7782 8.84515C19.7436 9.15765 18.8886 9.3818 18.2326 9.30907C17.5765 9.23645 16.9087 8.94715 16.9433 8.63466Z" fill="white"/>
<defs>
<linearGradient id="paint0_linear_301_35" x1="16.7838" y1="35.4052" x2="23.5946" y2="59.2431" gradientUnits="userSpaceOnUse">
<stop stop-color="white"/>
<stop offset="0.335825" stop-color="#C2C4C7"/>
<stop offset="0.500469" stop-color="#A4A6AB"/>
<stop offset="0.928153" stop-color="#303A49"/>
</linearGradient>
<linearGradient id="paint1_linear_301_35" x1="29.2704" y1="33.1347" x2="42.892" y2="51.2968" gradientUnits="userSpaceOnUse">
<stop stop-color="#474E5A"/>
<stop offset="1" stop-color="#313B4A"/>
</linearGradient>
<linearGradient id="paint2_linear_301_35" x1="55.3785" y1="34.2699" x2="40.6217" y2="51.2969" gradientUnits="userSpaceOnUse">
<stop stop-color="#303A49"/>
<stop offset="1" stop-color="#303A49" stop-opacity="0.87"/>
</linearGradient>
</defs>
</svg>
