<svg width="59" height="58" viewBox="0 0 59 58" fill="none" xmlns="http://www.w3.org/2000/svg">
<path fill-rule="evenodd" clip-rule="evenodd" d="M11.9601 33.7917C11.9601 33.7917 6.35997 18.3905 13.7224 15.6599C21.0847 12.9292 24.4135 24.8343 22.5338 30.9044C20.654 36.9744 20.3407 40.5773 20.3407 40.5773C20.3407 40.5773 32.4233 48.4989 32.3058 50.7605C32.1883 53.0222 34.8907 55.6091 34.8907 55.6091L27.3726 57.2137L13.3486 57.3097C13.3486 57.3097 12.6144 36.8332 11.9601 33.7917Z" fill="url(#paint0_linear_301_198)"/>
<path fill-rule="evenodd" clip-rule="evenodd" d="M5.76267 52.8167C5.76267 52.8167 -8.853 55.4355 8.4685 57.3959C8.4685 57.3959 6.06784 55.3024 5.76267 52.8167Z" fill="#A1A1A1"/>
<path fill-rule="evenodd" clip-rule="evenodd" d="M38.3569 54.1062C38.3569 54.1062 40.9818 54.9767 41.638 54.1865C42.1365 53.5862 40.9554 51.6378 40.9554 51.6378C40.9554 51.6378 43.1145 51.1732 43.7752 50.3552C43.7752 50.3552 46.7784 55.1627 44.649 56.5647C43.6338 57.2332 41.6529 58.1245 36.2303 57.1837C36.2303 57.1837 37.8371 56.646 38.3569 54.1062Z" fill="#A1A1A1"/>
<path fill-rule="evenodd" clip-rule="evenodd" d="M11.5979 6.9912L11.6408 3.59584C11.6408 3.59584 11.5439 0.821161 12.5748 0.574734C13.6058 0.328306 15.5099 2.37664 15.7647 2.61015C16.0195 2.84364 17.1803 3.86809 17.1803 3.86809C17.1803 3.86809 13.5101 5.02677 11.5979 6.9912Z" fill="#818181"/>
<path fill-rule="evenodd" clip-rule="evenodd" d="M24.8027 4.94119C24.8027 4.94119 26.4401 2.99961 27.7509 1.61866C28.696 0.623014 30.5441 -1.13368 31.2647 1.03674C31.5902 2.01688 31.5928 4.64976 31.4859 7.48853C31.3713 10.5312 31.2572 13.3677 31.2572 13.3677L31.2216 14.2611C31.2216 14.2611 30.1976 7.97051 24.8027 4.94119Z" fill="#818181"/>
<path fill-rule="evenodd" clip-rule="evenodd" d="M19.3836 3.32478C27.9086 2.36604 31.2397 13.575 31.2397 13.575L31.633 41.3391C31.633 41.3391 33.1758 53.6049 29.0283 52.8839C27.8305 52.6757 27.2321 50.2176 26.4516 47.7595C25.6711 45.3013 25.4319 48.73 25.3674 48.6526C25.3028 48.5753 24.5434 52.4528 24.5434 52.4528L24.3462 53.5257C24.3462 53.5257 26.0721 54.4737 25.4542 56.3267C24.8363 58.1798 21.2042 57.4887 20.6178 57.3558C20.0313 57.2229 19.2627 55.701 19.2563 54.788C19.2499 53.8749 19.2127 48.5637 19.2127 48.5637C19.2127 48.5637 19.5432 39.9178 19.789 38.1214C20.0348 36.325 20.7676 32.5768 21.024 31.8819C21.2804 31.1869 21.5266 30.1411 21.7294 29.6196C21.9322 29.0979 21.8744 27.089 21.4783 25.5629C21.0824 24.0369 20.389 20.8909 19.5012 19.36C18.6133 17.8291 17.3352 15.9165 14.8751 15.6337C12.4149 15.351 10.4166 19.0821 10.4449 22.7207C10.4732 26.3594 10.7355 28.6577 10.9625 29.9657C11.1895 31.2737 11.2906 31.7785 11.7979 32.8011C12.3052 33.8236 13.2678 35.915 13.4573 38.2241C13.6468 40.5332 14.0967 47.6493 14.0967 47.6493L14.3273 52.7022L14.446 55.4054C14.446 55.4054 14.285 57.3411 13.1552 57.3679C12.0253 57.3948 9.21153 57.3773 9.21153 57.3773C9.21153 57.3773 6.50709 55.3799 10.045 53.3116C10.045 53.3116 7.60896 49.448 7.29555 45.9305C7.01832 42.819 7.65174 27.8534 7.58685 22.1566C7.46184 11.1847 10.1774 4.36011 19.3836 3.32478Z" fill="#A3A3A3"/>
<path fill-rule="evenodd" clip-rule="evenodd" d="M31.1206 20.3955L31.2487 50.6177C31.2487 50.6177 31.2088 52.5867 28.7304 52.7547C26.2518 52.9229 26.2891 54.2267 26.3194 54.9759C26.3497 55.7251 26.5184 57.201 27.3392 57.3398L35.0804 57.3564C35.0804 57.3564 37.6224 58.0435 38.6445 54.1958C39.6665 50.3482 39.2491 51.8855 39.2491 51.8855C39.2491 51.8855 40.7927 45.6016 40.2284 40.3372C39.6641 35.0727 38.2013 29.4016 36.2764 26.4046C34.3515 23.4077 33.0883 21.7997 31.1206 20.3955Z" fill="url(#paint1_linear_301_198)"/>
<path fill-rule="evenodd" clip-rule="evenodd" d="M7.58336 28.0503L7.67567 44.1296C7.67567 44.1296 7.23833 49.575 10.4007 53.2255C10.4007 53.2255 7.09121 54.941 9.57724 57.368L8.38969 57.3811C8.38969 57.3811 7.24255 56.9824 5.67887 53.8322C1.38303 45.1779 7.08958 29.1804 7.58336 28.0503Z" fill="#878686"/>
<path fill-rule="evenodd" clip-rule="evenodd" d="M40.0874 46.9589C40.0874 46.9589 43.4528 45.3955 42.3835 41.7993C41.3143 38.203 40.1755 34.5347 40.0163 33.7091C39.8572 32.8836 38.972 29.0922 40.0362 27.0977C41.1004 25.1032 42.4122 22.5317 47.0044 22.281C51.5966 22.0304 54.9224 24.7019 54.9224 24.7019C54.9224 24.7019 58.5419 27.4789 58.0609 31.2782C57.5788 35.0774 56.0209 36.5123 56.0209 36.5123C56.0209 36.5123 53.6409 38.3033 52.4254 35.6332C51.7591 34.1695 53.6268 31.3716 53.6495 30.9125C53.6723 30.4536 53.9485 27.9945 49.0909 26.982C44.2323 25.9694 44.098 29.7194 44.2323 30.8275C44.3667 31.9356 44.7694 33.8061 46.2244 38.5109C47.6793 43.2156 46.7715 45.9533 46.7715 45.9533C46.7715 45.9533 46.0749 48.7108 44.2184 50.1936C42.3623 51.6763 40.9811 51.9499 39.3473 51.8841L39.0918 51.7993C39.0918 51.7993 39.7752 49.0074 40.0874 46.9589Z" fill="url(#paint2_linear_301_198)"/>
<path fill-rule="evenodd" clip-rule="evenodd" d="M40.2252 45.5318C40.2252 45.5318 41.0328 44.6183 42.4377 44.3108C42.4377 44.3108 41.7445 46.959 40.0781 47.0307L40.2252 45.5318Z" fill="#A1A1A1"/>
<path fill-rule="evenodd" clip-rule="evenodd" d="M46.9916 43.9314C46.9916 43.9314 46.6492 46.2378 46.243 46.8872C46.243 46.8872 48.7206 47.0188 49.6652 47.6862C49.6652 47.6862 50.7702 48.1334 50.0216 48.6124C50.0216 48.6124 48.9015 49.3575 49.6717 50.6049C49.6717 50.6049 50.7302 52.1414 52.1927 50.8045C52.1927 50.8045 53.9498 49.5655 53.315 47.1292C53.315 47.1292 52.678 45.2688 50.2676 44.5397C50.2676 44.5397 48.7856 44.0425 46.9916 43.9314Z" fill="#A1A1A1"/>
<path fill-rule="evenodd" clip-rule="evenodd" d="M16.5292 8.01747C16.5638 7.70498 17.3499 7.46782 18.0059 7.54055C18.662 7.61328 19.3987 7.91548 19.3641 8.22797C19.3295 8.54046 18.4745 8.76461 17.8186 8.69188C17.1625 8.61926 16.4947 8.32996 16.5292 8.01747Z" fill="white"/>
<defs>
<linearGradient id="paint0_linear_301_198" x1="18.5" y1="28.5" x2="23.1806" y2="58.6259" gradientUnits="userSpaceOnUse">
<stop stop-color="white"/>
<stop offset="0.928153" stop-color="#707070"/>
</linearGradient>
<linearGradient id="paint1_linear_301_198" x1="28.8563" y1="32.5175" x2="42.4779" y2="50.6797" gradientUnits="userSpaceOnUse">
<stop stop-color="#8E8E8E"/>
<stop offset="1" stop-color="#878686"/>
</linearGradient>
<linearGradient id="paint2_linear_301_198" x1="54.9644" y1="33.6527" x2="40.2076" y2="50.6797" gradientUnits="userSpaceOnUse">
<stop stop-color="#818181"/>
<stop offset="1" stop-color="#818181"/>
</linearGradient>
</defs>
</svg>
