<svg width="20" height="20" viewBox="0 0 20 20" fill="none" xmlns="http://www.w3.org/2000/svg">
<path d="M13.0066 5.98782L9.08187 10.9916L6.90559 8.81288L6.89931 8.80659L6.89282 8.80054C6.62313 8.54907 6.26636 8.41212 5.89766 8.41863C5.52897 8.42514 5.17725 8.5746 4.9166 8.83542C4.65596 9.09623 4.50672 9.44803 4.50022 9.81668C4.49372 10.1853 4.63047 10.5422 4.88174 10.812L4.88772 10.8184L4.89392 10.8246L8.14944 14.0835L8.14983 14.0839C8.28504 14.219 8.44607 14.3254 8.62331 14.3968C8.80056 14.4683 8.99038 14.5033 9.18145 14.4998C9.37253 14.4962 9.56092 14.4542 9.7354 14.3762C9.90987 14.2982 10.0668 14.1859 10.1969 14.0459L10.2096 14.0323L10.2213 14.0177L15.1201 7.89014C15.3673 7.62369 15.5034 7.27244 15.4999 6.9084C15.4964 6.53592 15.347 6.17963 15.0838 5.91602L14.9373 5.76931H14.9102C14.8167 5.70175 14.715 5.64566 14.6074 5.60245C14.4299 5.53114 14.2397 5.4964 14.0484 5.5003C13.8571 5.5042 13.6686 5.54666 13.4941 5.62514C13.3196 5.70362 13.1627 5.8165 13.0328 5.95701L13.0191 5.97188L13.0066 5.98782ZM4 0.5H16C17.933 0.5 19.5 2.067 19.5 4V16C19.5 17.933 17.933 19.5 16 19.5H4C2.067 19.5 0.5 17.933 0.5 16V4C0.5 2.067 2.067 0.5 4 0.5Z" fill="#0058DD" stroke="#0058DD"/>
</svg>
