<svg width="23" height="23" viewBox="0 0 23 23" fill="none" xmlns="http://www.w3.org/2000/svg">
<path fill-rule="evenodd" clip-rule="evenodd" d="M11.5 1C5.70114 1 1 5.70114 1 11.5C1 17.2989 5.70114 22 11.5 22C17.2989 22 22 17.2989 22 11.5C22 5.70114 17.2989 1 11.5 1ZM2.43182 11.5C2.43182 9.09497 3.38721 6.78844 5.08783 5.08783C6.78844 3.38721 9.09497 2.43182 11.5 2.43182C13.905 2.43182 16.2116 3.38721 17.9122 5.08783C19.6128 6.78844 20.5682 9.09497 20.5682 11.5C20.5682 13.905 19.6128 16.2116 17.9122 17.9122C16.2116 19.6128 13.905 20.5682 11.5 20.5682C9.09497 20.5682 6.78844 19.6128 5.08783 17.9122C3.38721 16.2116 2.43182 13.905 2.43182 11.5Z" fill="#0058DD"/>
<path d="M2.43182 11.5C2.43182 9.09497 3.38721 6.78844 5.08783 5.08783C6.78844 3.38721 9.09497 2.43182 11.5 2.43182C13.905 2.43182 16.2116 3.38721 17.9122 5.08783C19.6128 6.78844 20.5682 9.09497 20.5682 11.5C20.5682 13.905 19.6128 16.2116 17.9122 17.9122C16.2116 19.6128 13.905 20.5682 11.5 20.5682C9.09497 20.5682 6.78844 19.6128 5.08783 17.9122C3.38721 16.2116 2.43182 13.905 2.43182 11.5Z" fill="#0058DD"/>
<path d="M16.5812 9.20874C16.7082 9.07249 16.7773 8.89228 16.774 8.70607C16.7707 8.51987 16.6953 8.34221 16.5636 8.21052C16.4319 8.07883 16.2543 8.0034 16.0681 8.00011C15.8819 7.99683 15.7016 8.06595 15.5654 8.19291L10.055 14.125L7.20873 10.8571C7.07248 10.7301 6.89227 10.661 6.70606 10.6643C6.51986 10.6676 6.34219 10.743 6.21051 10.8747C6.07882 11.0064 6.00339 11.1841 6.0001 11.3703C5.99682 11.5565 6.06593 11.7367 6.19289 11.8729L9.54706 15.6488C9.68183 15.7834 9.86451 15.859 10.055 15.859C10.2454 15.859 10.4281 15.7834 10.5629 15.6488L16.5812 9.20874Z" fill="white"/>
</svg>
