<svg width="20" height="20" viewBox="0 0 20 20" fill="none" xmlns="http://www.w3.org/2000/svg">
<path d="M3 0.5H17C18.3807 0.5 19.5 1.61929 19.5 3V17C19.5 18.3807 18.3807 19.5 17 19.5H3C1.61929 19.5 0.5 18.3807 0.5 17V3C0.5 1.61929 1.61929 0.5 3 0.5Z" fill="#0058DD" stroke="#0058DD"/>
<path d="M15.1204 5.80316C15.0237 5.70457 14.9086 5.62694 14.782 5.57492C14.6553 5.5229 14.5197 5.49755 14.3832 5.5004C14.2468 5.50324 14.1123 5.53422 13.9878 5.59147C13.8633 5.64873 13.7514 5.73109 13.6587 5.83363L8.95841 11.9625L6.12576 9.06219C5.93334 8.8787 5.67884 8.77881 5.41588 8.78356C5.15291 8.7883 4.90201 8.89732 4.71604 9.08765C4.53007 9.27797 4.42354 9.53474 4.4189 9.80386C4.41426 10.073 4.51187 10.3334 4.69117 10.5304L8.27224 14.1966C8.36871 14.2951 8.48359 14.3728 8.61003 14.4249C8.73646 14.4771 8.87186 14.5026 9.00814 14.5C9.14442 14.4974 9.27881 14.4668 9.40326 14.4099C9.52772 14.353 9.63971 14.271 9.73255 14.1689L15.1353 7.25746C15.3195 7.06148 15.4212 6.79939 15.4187 6.52748C15.4162 6.25557 15.3082 5.99552 15.1204 5.80316Z" fill="white"/>
</svg>
