<svg width="25" height="25" viewBox="0 0 25 25" fill="none" xmlns="http://www.w3.org/2000/svg">
<g clip-path="url(#clip0_984_134)">
<path d="M25 12.5C25 15.8152 23.683 18.9946 21.3388 21.3388C18.9946 23.683 15.8152 25 12.5 25C9.18479 25 6.00537 23.683 3.66117 21.3388C1.31696 18.9946 0 15.8152 0 12.5C0 9.18479 1.31696 6.00537 3.66117 3.66117C6.00537 1.31696 9.18479 0 12.5 0C15.8152 0 18.9946 1.31696 21.3388 3.66117C23.683 6.00537 25 9.18479 25 12.5ZM18.355 7.84154C18.2434 7.73032 18.1105 7.64275 17.9642 7.58407C17.818 7.52538 17.6614 7.49679 17.5039 7.5C17.3464 7.50321 17.1911 7.53815 17.0474 7.60274C16.9037 7.66733 16.7744 7.76025 16.6675 7.87592L11.2409 14.79L7.97059 11.5181C7.74844 11.3111 7.45462 11.1984 7.15102 11.2038C6.84742 11.2091 6.55776 11.3321 6.34305 11.5468C6.12834 11.7615 6.00536 12.0512 6 12.3548C5.99464 12.6584 6.10734 12.9522 6.31434 13.1744L10.4487 17.3103C10.5601 17.4215 10.6927 17.5091 10.8387 17.5679C10.9847 17.6267 11.141 17.6555 11.2983 17.6526C11.4557 17.6497 11.6108 17.6151 11.7545 17.5509C11.8982 17.4867 12.0275 17.3943 12.1346 17.279L18.3722 9.48217C18.5848 9.26107 18.7023 8.96541 18.6993 8.65866C18.6964 8.35192 18.5733 8.05855 18.3565 7.84154H18.355Z" fill="#E62F17"/>
</g>
<defs>
<clipPath id="clip0_984_134">
<rect width="25" height="25" fill="white"/>
</clipPath>
</defs>
</svg>
