<svg width="53" height="53" viewBox="0 0 53 53" fill="none" xmlns="http://www.w3.org/2000/svg">
<path fill-rule="evenodd" clip-rule="evenodd" d="M26.5 2.20825C13.0844 2.20825 2.20837 13.0843 2.20837 26.4999C2.20837 39.9155 13.0844 50.7916 26.5 50.7916C39.9157 50.7916 50.7917 39.9155 50.7917 26.4999C50.7917 13.0843 39.9157 2.20825 26.5 2.20825ZM37.0294 22.3924C37.2233 22.1708 37.3709 21.9126 37.4635 21.6331C37.5561 21.3536 37.5919 21.0584 37.5688 20.7648C37.5457 20.4713 37.4641 20.1853 37.3288 19.9238C37.1935 19.6622 37.0073 19.4304 36.781 19.2419C36.5548 19.0534 36.2932 18.912 36.0116 18.8261C35.7299 18.7402 35.4339 18.7115 35.141 18.7417C34.8481 18.7718 34.5642 18.8603 34.3059 19.0018C34.0477 19.1433 33.8204 19.3351 33.6374 19.5658L24.1415 30.9585L19.228 26.0428C18.8115 25.6405 18.2537 25.4179 17.6747 25.423C17.0956 25.428 16.5418 25.6603 16.1323 26.0697C15.7229 26.4791 15.4906 27.033 15.4856 27.612C15.4806 28.1911 15.7032 28.7489 16.1054 29.1654L22.7304 35.7904C22.9474 36.0072 23.2072 36.1765 23.4932 36.2874C23.7792 36.3983 24.0852 36.4484 24.3917 36.4344C24.6981 36.4205 24.9983 36.3429 25.2731 36.2065C25.5479 36.0702 25.7913 35.8781 25.9877 35.6424L37.0294 22.3924Z" fill="#41CA00"/>
</svg>
