<svg width="15" height="15" viewBox="0 0 15 15" fill="none" xmlns="http://www.w3.org/2000/svg">
<path d="M14.7314 3.69184C14.9082 3.50113 15.0044 3.2489 14.9998 2.98827C14.9953 2.72764 14.8903 2.47898 14.7069 2.29466C14.5236 2.11034 14.2762 2.00476 14.017 2.00016C13.7578 1.99556 13.5069 2.0923 13.3172 2.27L5.64545 10.573L1.68283 5.99901C1.49314 5.82131 1.24225 5.72457 0.983007 5.72916C0.723768 5.73376 0.476425 5.83934 0.293086 6.02366C0.109748 6.20798 0.00472987 6.45665 0.000155899 6.71728C-0.00441807 6.9779 0.0918093 7.23014 0.268566 7.42085L4.93831 12.7058C5.12594 12.8942 5.38027 13 5.64545 13C5.91062 13 6.16495 12.8942 6.35258 12.7058L14.7314 3.69184Z" fill="#A4A4A4"/>
</svg>
