<svg width="26" height="26" viewBox="0 0 26 26" fill="none" xmlns="http://www.w3.org/2000/svg">
<circle cx="13" cy="13" r="13" fill="#E62F17"/>
<path d="M20 13C20 14.8565 19.2625 16.637 17.9497 17.9497C16.637 19.2625 14.8565 20 13 20C11.1435 20 9.36301 19.2625 8.05025 17.9497C6.7375 16.637 6 14.8565 6 13C6 11.1435 6.7375 9.36301 8.05025 8.05025C9.36301 6.7375 11.1435 6 13 6C14.8565 6 16.637 6.7375 17.9497 8.05025C19.2625 9.36301 20 11.1435 20 13V13ZM18.25 13C18.2516 11.9097 17.9122 10.8463 17.2793 9.9585L9.9585 17.2793C10.7439 17.8376 11.6678 18.1689 12.629 18.237C13.5902 18.3051 14.5515 18.1073 15.4078 17.6654C16.2641 17.2235 16.9822 16.5544 17.4835 15.7315C17.9848 14.9086 18.25 13.9636 18.25 13V13ZM16.0415 8.72067C15.0303 8.00179 13.7971 7.66428 12.5607 7.76801C11.3243 7.87174 10.1646 8.40999 9.28732 9.28732C8.40999 10.1646 7.87174 11.3243 7.76801 12.5607C7.66428 13.7971 8.00179 15.0303 8.72067 16.0415L16.0415 8.72067V8.72067Z" fill="white"/>
</svg>
