<svg width="26" height="26" viewBox="0 0 26 26" fill="none" xmlns="http://www.w3.org/2000/svg">
<circle cx="13" cy="13" r="13" fill="#0058DD"/>
<g clip-path="url(#clip0_431_746)">
<path fill-rule="evenodd" clip-rule="evenodd" d="M14.667 7.05962C14.7065 7.01994 14.7536 6.98846 14.8053 6.96698C14.8571 6.9455 14.9126 6.93445 14.9686 6.93445C15.0247 6.93445 15.0802 6.9455 15.1319 6.96698C15.1837 6.98846 15.2307 7.01994 15.2703 7.05962L18.6789 10.4682C18.7186 10.5078 18.75 10.5548 18.7715 10.6066C18.793 10.6583 18.8041 10.7138 18.8041 10.7699C18.8041 10.8259 18.793 10.8814 18.7715 10.9332C18.75 10.9849 18.7186 11.032 18.6789 11.0715L17.0581 12.6923L16.3517 15.5155C16.2979 15.7305 16.1893 15.9278 16.0363 16.0881C15.8833 16.2484 15.6913 16.3662 15.4791 16.4299L6.66357 19.0749L9.30864 10.2586C9.3724 10.0466 9.49011 9.85485 9.65024 9.70204C9.81037 9.54923 10.0074 9.44062 10.2221 9.38684L13.0453 8.68126L14.667 7.05962ZM13.1331 9.53767L10.4292 10.2134C10.3574 10.2313 10.2916 10.2676 10.2381 10.3187C10.1846 10.3698 10.1453 10.434 10.1242 10.5049L7.93413 17.8035L15.2345 15.6135C15.305 15.5921 15.3687 15.5529 15.4195 15.4996C15.4702 15.4463 15.5063 15.3807 15.5242 15.3093L16.2008 12.6046L13.1331 9.53767Z" fill="white"/>
<path d="M13.1331 9.53767L10.4292 10.2134C10.3574 10.2313 10.2916 10.2676 10.2381 10.3187C10.1846 10.3698 10.1453 10.434 10.1242 10.5049L7.93413 17.8035L15.2345 15.6135C15.305 15.5921 15.3687 15.5529 15.4195 15.4996C15.4702 15.4463 15.5063 15.3807 15.5242 15.3093L16.2008 12.6046L13.1331 9.53767Z" fill="white"/>
<path fill-rule="evenodd" clip-rule="evenodd" d="M7.39355 18.4108L12.1748 14.6542C12.3904 14.6542 12.6011 14.5903 12.7804 14.4705C12.9596 14.3507 13.0993 14.1805 13.1818 13.9813C13.2644 13.7821 13.2859 13.563 13.2439 13.3515C13.2018 13.1401 13.098 12.9458 12.9456 12.7934C12.7931 12.6409 12.5989 12.5371 12.3874 12.4951C12.176 12.453 11.9568 12.4746 11.7576 12.5571C11.5584 12.6396 11.3882 12.7793 11.2684 12.9586C11.1486 13.1378 11.0847 13.3486 11.0847 13.5642L7.32815 18.3454L7.2998 18.4392L7.39355 18.4108Z" fill="#0058DD"/>
</g>
<defs>
<clipPath id="clip0_431_746">
<rect width="13.9286" height="13.9286" fill="white" transform="translate(5.57178 6.5)"/>
</clipPath>
</defs>
</svg>
