<svg width="26" height="26" viewBox="0 0 26 26" fill="none" xmlns="http://www.w3.org/2000/svg">
<circle cx="13" cy="13" r="13" fill="#0058DD"/>
<path fill-rule="evenodd" clip-rule="evenodd" d="M14.7948 7.12932C14.8374 7.08833 14.8881 7.0558 14.9438 7.03361C14.9996 7.01142 15.0593 7 15.1197 7C15.18 7 15.2398 7.01142 15.2955 7.03361C15.3513 7.0558 15.4019 7.08833 15.4445 7.12932L19.1153 10.6507C19.1581 10.6916 19.192 10.7402 19.2151 10.7937C19.2382 10.8471 19.2501 10.9045 19.2501 10.9624C19.2501 11.0203 19.2382 11.0776 19.2151 11.1311C19.192 11.1845 19.1581 11.2331 19.1153 11.274L17.3699 12.9484L16.6091 15.865C16.5512 16.0871 16.4342 16.291 16.2695 16.4566C16.1047 16.6222 15.8979 16.7438 15.6694 16.8096L7.96145 19.0283C7.19593 19.2486 6.49265 18.5291 6.73042 17.7688L9.02432 10.4342C9.09298 10.2152 9.21974 10.0171 9.39219 9.85918C9.56464 9.70131 9.77686 9.58911 10.0081 9.53355L13.0484 8.80462L14.7948 7.12932ZM13.143 9.68938L10.2311 10.3875C10.1538 10.406 10.0829 10.4435 10.0253 10.4963C9.96764 10.5491 9.92536 10.6153 9.90256 10.6886L7.54407 18.2288L15.406 15.9663C15.4819 15.9442 15.5505 15.9037 15.6052 15.8486C15.6599 15.7935 15.6987 15.7258 15.718 15.652L16.4467 12.8578L13.143 9.68938Z" fill="white"/>
<path d="M13.143 9.68938L10.2311 10.3875C10.1538 10.406 10.0829 10.4435 10.0253 10.4963C9.96764 10.5491 9.92536 10.6153 9.90256 10.6886L7.54407 18.2288L15.406 15.9663C15.4819 15.9442 15.5505 15.9037 15.6052 15.8486C15.6599 15.7935 15.6987 15.7258 15.718 15.652L16.4467 12.8578L13.143 9.68938Z" fill="white"/>
<path fill-rule="evenodd" clip-rule="evenodd" d="M7.1037 18.9911C7.11004 18.9892 7.116 18.9863 7.12133 18.9824L12.6829 14.9121C12.9434 14.9121 13.198 14.8357 13.4146 14.6926C13.6312 14.5495 13.8 14.346 13.8997 14.108C13.9994 13.87 14.0255 13.6081 13.9747 13.3554C13.9239 13.1028 13.7984 12.8707 13.6142 12.6885C13.43 12.5064 13.1953 12.3823 12.9398 12.332C12.6843 12.2818 12.4195 12.3076 12.1788 12.4062C11.9382 12.5047 11.7325 12.6717 11.5877 12.8859C11.443 13.1001 11.3657 13.3519 11.3657 13.6096L7.04131 18.9015C7.03665 18.9072 7.03314 18.9137 7.03098 18.9208V18.9208C7.01773 18.9641 7.05811 19.0047 7.10153 18.9918L7.1037 18.9911Z" fill="#0058DD"/>
</svg>
