<svg width="26" height="27" viewBox="0 0 26 27" fill="none" xmlns="http://www.w3.org/2000/svg">
<path d="M25.9987 13.5006C25.9987 6.32053 20.1782 0.5 12.998 0.5C5.81793 0.5 0 6.32053 0 13.5006C0 20.6795 5.81923 26.5 12.9993 26.5C20.1795 26.5 26 20.6795 26 13.5006H25.9987ZM7.47648 10.901C7.46773 10.6824 7.50324 10.4642 7.58088 10.2596C7.65852 10.055 7.7767 9.8682 7.92831 9.71039C8.07993 9.55259 8.26186 9.42704 8.46319 9.34128C8.66452 9.25551 8.8811 9.21131 9.09994 9.21131C9.31877 9.21131 9.53535 9.25551 9.73668 9.34128C9.93801 9.42704 10.1199 9.55259 10.2716 9.71039C10.4232 9.8682 10.5413 10.055 10.619 10.2596C10.6966 10.4642 10.7321 10.6824 10.7234 10.901C10.7114 11.3238 10.5351 11.7253 10.2318 12.0201C9.92852 12.3149 9.52224 12.4798 9.09928 12.4798C8.67633 12.4798 8.27005 12.3149 7.96677 12.0201C7.6635 11.7253 7.48714 11.3238 7.47518 10.901H7.47648ZM15.2753 10.901C15.2666 10.6824 15.3021 10.4642 15.3797 10.2596C15.4574 10.055 15.5755 9.8682 15.7271 9.71039C15.8788 9.55259 16.0607 9.42704 16.262 9.34128C16.4633 9.25551 16.6799 9.21131 16.8988 9.21131C17.1176 9.21131 17.3342 9.25551 17.5355 9.34128C17.7368 9.42704 17.9188 9.55259 18.0704 9.71039C18.222 9.8682 18.3402 10.055 18.4178 10.2596C18.4955 10.4642 18.531 10.6824 18.5222 10.901C18.5103 11.3238 18.3339 11.7253 18.0306 12.0201C17.7274 12.3149 17.3211 12.4798 16.8981 12.4798C16.4752 12.4798 16.0689 12.3149 15.7656 12.0201C15.4623 11.7253 15.286 11.3238 15.274 10.901H15.2753ZM17.8723 16.0977H18.6522C18.9107 16.0977 19.1587 16.2004 19.3415 16.3832C19.5243 16.566 19.6271 16.814 19.6271 17.0725C19.6271 17.3311 19.5243 17.579 19.3415 17.7618C19.1587 17.9447 18.9107 18.0474 18.6522 18.0474H17.8723C17.069 18.0474 16.1345 18.2553 15.2753 18.5907C14.4057 18.9286 13.7194 19.355 13.362 19.7111C13.2727 19.8069 13.1651 19.8837 13.0455 19.937C12.926 19.9903 12.7969 20.0189 12.666 20.0212C12.5351 20.0235 12.4051 19.9995 12.2837 19.9504C12.1623 19.9014 12.052 19.8284 11.9595 19.7359C11.8669 19.6433 11.7939 19.533 11.7449 19.4116C11.6958 19.2903 11.6718 19.1602 11.6741 19.0293C11.6764 18.8984 11.705 18.7694 11.7583 18.6498C11.8116 18.5302 11.8884 18.4226 11.9842 18.3333C12.6016 17.7146 13.5596 17.1661 14.5695 16.7736C15.5886 16.3758 16.7662 16.0977 17.8723 16.0977Z" fill="#FF9900"/>
</svg>
