<svg width="15" height="15" viewBox="0 0 15 15" fill="none" xmlns="http://www.w3.org/2000/svg">
<path fill-rule="evenodd" clip-rule="evenodd" d="M0.570918 10.3701C0.947838 11.2801 1.5003 12.1069 2.19676 12.8034C3.60331 14.2099 5.51102 15.0001 7.50019 15.0001C9.48937 15.0001 11.3971 14.2099 12.8036 12.8034C14.2102 11.3968 15.0004 9.48912 15.0004 7.49995C15.0004 5.51077 14.2102 3.60307 12.8036 2.19651C12.1072 1.50005 11.2804 0.947594 10.3704 0.570674C9.46043 0.193754 8.48513 -0.000244133 7.50019 -0.000244141C6.51525 -0.000244148 5.53996 0.193754 4.62999 0.570674C3.72003 0.947594 2.89321 1.50005 2.19676 2.19651C1.5003 2.89297 0.947838 3.71978 0.570918 4.62975C0.193998 5.53971 -7.33837e-09 6.51501 0 7.49995C7.33837e-09 8.48489 0.193998 9.46018 0.570918 10.3701ZM4.63854 3.79288C4.86145 3.78895 5.07719 3.87169 5.2403 4.02368L7.50036 6.28374L9.76043 4.02368C9.8392 3.93914 9.93419 3.87134 10.0397 3.82431C10.1453 3.77728 10.2592 3.75199 10.3748 3.74996C10.4903 3.74792 10.605 3.76917 10.7122 3.81244C10.8193 3.85572 10.9166 3.92013 10.9983 4.00184C11.0801 4.08354 11.1445 4.18087 11.1877 4.28801C11.231 4.39514 11.2523 4.5099 11.2502 4.62543C11.2482 4.74096 11.2229 4.8549 11.1759 4.96044C11.1288 5.06599 11.061 5.16098 10.9765 5.23976L8.71644 7.49982L10.9765 9.75989C11.061 9.83866 11.1288 9.93365 11.1759 10.0392C11.2229 10.1447 11.2482 10.2587 11.2502 10.3742C11.2523 10.4897 11.231 10.6045 11.1877 10.7116C11.1445 10.8188 11.0801 10.9161 10.9983 10.9978C10.9166 11.0795 10.8193 11.1439 10.7122 11.1872C10.605 11.2305 10.4903 11.2517 10.3748 11.2497C10.2592 11.2476 10.1453 11.2224 10.0397 11.1753C9.93419 11.1283 9.8392 11.0605 9.76043 10.976L7.50036 8.7159L5.2403 10.976C5.16152 11.0605 5.06653 11.1283 4.96099 11.1753C4.85544 11.2224 4.7415 11.2476 4.62597 11.2497C4.51044 11.2517 4.39568 11.2305 4.28855 11.1872C4.18141 11.1439 4.08408 11.0795 4.00238 10.9978C3.92067 10.9161 3.85626 10.8188 3.81299 10.7116C3.76971 10.6045 3.74846 10.4897 3.7505 10.3742C3.75254 10.2587 3.77782 10.1447 3.82485 10.0392C3.87188 9.93365 3.93968 9.83866 4.02422 9.75989L6.28429 7.49982L4.02422 5.23976C3.87223 5.07665 3.78949 4.86091 3.79342 4.638C3.79736 4.41509 3.88766 4.20241 4.0453 4.04476C4.20295 3.88712 4.41563 3.79681 4.63854 3.79288Z" fill="#DD0000"/>
</svg>
