<svg width="26" height="27" viewBox="0 0 26 27" fill="none" xmlns="http://www.w3.org/2000/svg">
<circle cx="13" cy="13.9104" r="13" fill="#E62F17"/>
<path d="M8.28585 8.27707C8.05853 8.27707 7.84051 8.36838 7.67976 8.53091C7.51902 8.69344 7.42871 8.91388 7.42871 9.14373V10.0104C7.42871 10.2403 7.51902 10.4607 7.67976 10.6232C7.84051 10.7858 8.05853 10.8771 8.28585 10.8771H8.71443V18.6771C8.71443 19.1368 8.89504 19.5777 9.21653 19.9027C9.53802 20.2278 9.97405 20.4104 10.4287 20.4104H15.5716C16.0262 20.4104 16.4623 20.2278 16.7838 19.9027C17.1052 19.5777 17.2859 19.1368 17.2859 18.6771V10.8771H17.7144C17.9418 10.8771 18.1598 10.7858 18.3205 10.6232C18.4813 10.4607 18.5716 10.2403 18.5716 10.0104V9.14373C18.5716 8.91388 18.4813 8.69344 18.3205 8.53091C18.1598 8.36838 17.9418 8.27707 17.7144 8.27707H14.7144C14.7144 8.04721 14.6241 7.82677 14.4634 7.66424C14.3026 7.50171 14.0846 7.4104 13.8573 7.4104H12.143C11.9157 7.4104 11.6977 7.50171 11.5369 7.66424C11.3762 7.82677 11.2859 8.04721 11.2859 8.27707H8.28585ZM10.8573 11.7437C10.9709 11.7437 11.08 11.7894 11.1603 11.8707C11.2407 11.9519 11.2859 12.0621 11.2859 12.1771V18.2437C11.2859 18.3587 11.2407 18.4689 11.1603 18.5501C11.08 18.6314 10.9709 18.6771 10.8573 18.6771C10.7436 18.6771 10.6346 18.6314 10.5542 18.5501C10.4739 18.4689 10.4287 18.3587 10.4287 18.2437V12.1771C10.4287 12.0621 10.4739 11.9519 10.5542 11.8707C10.6346 11.7894 10.7436 11.7437 10.8573 11.7437ZM13.0001 11.7437C13.1138 11.7437 13.2228 11.7894 13.3032 11.8707C13.3836 11.9519 13.4287 12.0621 13.4287 12.1771V18.2437C13.4287 18.3587 13.3836 18.4689 13.3032 18.5501C13.2228 18.6314 13.1138 18.6771 13.0001 18.6771C12.8865 18.6771 12.7775 18.6314 12.6971 18.5501C12.6167 18.4689 12.5716 18.3587 12.5716 18.2437V12.1771C12.5716 12.0621 12.6167 11.9519 12.6971 11.8707C12.7775 11.7894 12.8865 11.7437 13.0001 11.7437ZM15.5716 12.1771V18.2437C15.5716 18.3587 15.5264 18.4689 15.446 18.5501C15.3657 18.6314 15.2567 18.6771 15.143 18.6771C15.0293 18.6771 14.9203 18.6314 14.84 18.5501C14.7596 18.4689 14.7144 18.3587 14.7144 18.2437V12.1771C14.7144 12.0621 14.7596 11.9519 14.84 11.8707C14.9203 11.7894 15.0293 11.7437 15.143 11.7437C15.2567 11.7437 15.3657 11.7894 15.446 11.8707C15.5264 11.9519 15.5716 12.0621 15.5716 12.1771Z" fill="white"/>
</svg>
