<svg width="26" height="26" viewBox="0 0 26 26" fill="none" xmlns="http://www.w3.org/2000/svg">
<circle cx="13" cy="13" r="13" fill="#FF9900"/>
<path fill-rule="evenodd" clip-rule="evenodd" d="M6.6837 18H19.3163C19.8412 18 20.1685 17.4467 19.9094 17.0001L13.5897 6.33479C13.5303 6.2331 13.4445 6.14856 13.341 6.08977C13.2374 6.03097 13.1198 6 13 6C12.8802 6 12.7626 6.03097 12.659 6.08977C12.5555 6.14856 12.4697 6.2331 12.4103 6.33479L6.09058 17.0001C5.83152 17.4467 6.15876 18 6.6837 18ZM13.0067 13.7783C12.5068 13.7783 12.0977 13.3784 12.0977 12.8895V10.6676C12.0977 10.1788 12.5068 9.77883 13.0067 9.77883C13.5066 9.77883 13.9157 10.1788 13.9157 10.6676V12.8895C13.9157 13.3784 13.5066 13.7783 13.0067 13.7783ZM13.9123 15.5559C13.9123 15.065 13.5054 14.6671 13.0034 14.6671C12.5013 14.6671 12.0944 15.065 12.0944 15.5559C12.0944 16.0467 12.5013 16.4447 13.0034 16.4447C13.5054 16.4447 13.9123 16.0467 13.9123 15.5559Z" fill="white"/>
</svg>
