<svg width="18" height="18" viewBox="0 0 18 18" fill="none" xmlns="http://www.w3.org/2000/svg">
<path d="M9 16C5.13359 16 2 12.8664 2 9C2 5.13359 5.13359 2 9 2C12.8664 2 16 5.13359 16 9C16 12.8664 12.8664 16 9 16ZM8.34375 9C8.34375 9.21875 8.45312 9.42383 8.63633 9.52227L11.2613 11.2723C11.5621 11.4965 11.9695 11.4145 12.1473 11.1137C12.3715 10.8129 12.2895 10.4055 11.9887 10.2031L9.65625 8.65V5.28125C9.65625 4.91758 9.36367 4.625 8.97539 4.625C8.63633 4.625 8.31914 4.91758 8.31914 5.28125L8.34375 9Z" fill="#D2D2D2"/>
</svg>
