<svg width="18" height="18" viewBox="0 0 18 18" fill="none" xmlns="http://www.w3.org/2000/svg">
<path d="M9.5 1C4.80508 1 1 4.325 1 8.42857C1 10.2 1.71055 11.8214 2.89258 13.0964C2.47754 14.8964 1.08965 16.5 1.07305 16.5179C1 16.6 0.980078 16.7214 1.02324 16.8286C1.06641 16.9357 1.15938 17 1.26563 17C3.46699 17 5.11719 15.8643 5.93398 15.1643C7.01973 15.6036 8.225 15.8571 9.5 15.8571C14.1949 15.8571 18 12.5321 18 8.42857C18 4.325 14.1949 1 9.5 1ZM5.25 9.57143C4.6623 9.57143 4.1875 9.06071 4.1875 8.42857C4.1875 7.79643 4.6623 7.28571 5.25 7.28571C5.8377 7.28571 6.3125 7.79643 6.3125 8.42857C6.3125 9.06071 5.8377 9.57143 5.25 9.57143ZM9.5 9.57143C8.9123 9.57143 8.4375 9.06071 8.4375 8.42857C8.4375 7.79643 8.9123 7.28571 9.5 7.28571C10.0877 7.28571 10.5625 7.79643 10.5625 8.42857C10.5625 9.06071 10.0877 9.57143 9.5 9.57143ZM13.75 9.57143C13.1623 9.57143 12.6875 9.06071 12.6875 8.42857C12.6875 7.79643 13.1623 7.28571 13.75 7.28571C14.3377 7.28571 14.8125 7.79643 14.8125 8.42857C14.8125 9.06071 14.3377 9.57143 13.75 9.57143Z" fill="#C4C4C4"/>
</svg>
