<svg width="14" height="14" viewBox="0 0 14 14" fill="none" xmlns="http://www.w3.org/2000/svg">
<path d="M8.16699 4.66667H2.33366C1.69024 4.66667 1.16699 5.18992 1.16699 5.83334V11.6667C1.16699 12.3101 1.69024 12.8333 2.33366 12.8333H8.16699C8.81041 12.8333 9.33366 12.3101 9.33366 11.6667V5.83334C9.33366 5.18992 8.81041 4.66667 8.16699 4.66667Z" fill="#D2D2D2"/>
<path d="M11.667 1.16667H5.83366C5.52424 1.16667 5.22749 1.28959 5.0087 1.50838C4.78991 1.72717 4.66699 2.02392 4.66699 2.33334V3.50001H9.33366C9.64308 3.50001 9.93982 3.62292 10.1586 3.84171C10.3774 4.06051 10.5003 4.35725 10.5003 4.66667V9.33334H11.667C11.9764 9.33334 12.2732 9.21042 12.4919 8.99163C12.7107 8.77284 12.8337 8.47609 12.8337 8.16667V2.33334C12.8337 2.02392 12.7107 1.72717 12.4919 1.50838C12.2732 1.28959 11.9764 1.16667 11.667 1.16667Z" fill="#D2D2D2"/>
</svg>
