<svg width="18" height="18" viewBox="0 0 18 18" fill="none" xmlns="http://www.w3.org/2000/svg">
<g clip-path="url(#clip0_481_196)">
<path fill-rule="evenodd" clip-rule="evenodd" d="M15.3639 15.3642C16.1996 14.5284 16.8626 13.5362 17.3149 12.4443C17.7672 11.3523 18 10.182 18 9.00005C18 7.81812 17.7672 6.64777 17.3149 5.55581C16.8626 4.46385 16.1996 3.47167 15.3639 2.63592C14.5281 1.80017 13.536 1.13722 12.444 0.684919C11.352 0.232615 10.1817 -0.000183114 8.99977 -0.000183105C7.81784 -0.000183097 6.64749 0.232615 5.55553 0.684919C4.46357 1.13722 3.47139 1.80017 2.63564 2.63592C0.947773 4.32379 -0.000463504 6.61304 -0.000463486 9.00005C-0.000463468 11.3871 0.947773 13.6763 2.63564 15.3642C4.32351 17.052 6.61276 18.0003 8.99977 18.0003C11.3868 18.0003 13.676 17.052 15.3639 15.3642V15.3642ZM11.216 5.5913C11.376 5.44226 11.5875 5.36112 11.8061 5.36498C12.0247 5.36883 12.2333 5.45738 12.3878 5.61197C12.5424 5.76656 12.631 5.97512 12.6348 6.19371C12.6387 6.4123 12.5576 6.62385 12.4085 6.7838L10.1923 9.00005L12.4085 11.2163C12.4914 11.2935 12.5579 11.3867 12.604 11.4902C12.6501 11.5937 12.6749 11.7054 12.6769 11.8187C12.6789 11.932 12.6581 12.0445 12.6157 12.1496C12.5732 12.2547 12.5101 12.3501 12.4299 12.4302C12.3498 12.5103 12.2544 12.5735 12.1493 12.6159C12.0443 12.6584 11.9317 12.6792 11.8184 12.6772C11.7051 12.6752 11.5934 12.6504 11.4899 12.6043C11.3864 12.5582 11.2933 12.4917 11.216 12.4088L8.99977 10.1925L6.78352 12.4088C6.70627 12.4917 6.61312 12.5582 6.50962 12.6043C6.40612 12.6504 6.2944 12.6752 6.18111 12.6772C6.06781 12.6792 5.95528 12.6584 5.85022 12.6159C5.74516 12.5735 5.64972 12.5103 5.5696 12.4302C5.48948 12.3501 5.42632 12.2547 5.38388 12.1496C5.34144 12.0445 5.3206 11.932 5.3226 11.8187C5.3246 11.7054 5.3494 11.5937 5.39551 11.4902C5.44163 11.3867 5.50812 11.2935 5.59102 11.2163L7.80727 9.00005L5.59102 6.7838C5.50812 6.70655 5.44163 6.6134 5.39551 6.5099C5.3494 6.4064 5.3246 6.29468 5.3226 6.18139C5.3206 6.0681 5.34144 5.95556 5.38388 5.8505C5.42632 5.74544 5.48948 5.65 5.5696 5.56988C5.64972 5.48976 5.74516 5.4266 5.85022 5.38416C5.95528 5.34172 6.06781 5.32088 6.18111 5.32288C6.2944 5.32488 6.40612 5.34968 6.50962 5.39579C6.61312 5.44191 6.70627 5.5084 6.78352 5.5913L8.99977 7.80755L11.216 5.5913Z" fill="#F0F1F2"/>
</g>
<defs>
<clipPath id="clip0_481_196">
<rect width="18" height="18" fill="white"/>
</clipPath>
</defs>
</svg>
