<svg width="49" height="54" viewBox="0 0 49 54" fill="none" xmlns="http://www.w3.org/2000/svg">
<path d="M48.9374 49.7642C49.9002 46.674 39.5044 44.7737 34.76 44.1856L36.169 46.978C41.724 47.9999 44.8705 48.3048 44.6414 49.6236C44.4123 50.9425 33.6625 51.4083 32.4216 50.9325C31.1807 50.4568 33.7819 52.3381 31.6829 52.6525C30.38 52.8477 47.6596 53.8658 48.9374 49.7642Z" fill="#4A6A74"/>
<path d="M47.1263 42.8519C46.9275 37.2289 38.9647 32.1641 34.2138 32.6075L35.9411 38.5941C41.3405 39.2592 42.6739 42.6707 42.026 44.4445C40.9731 47.3269 31.1434 47.2863 30.4964 48.6167C29.8494 49.947 28.7491 52.507 30.7132 52.8294C32.6947 53.1547 47.4511 52.038 47.1263 42.8519Z" fill="#1E6378"/>
<path d="M7.95605 53.1547C-6.45313 51.0106 1.95223 48.8368 7.95605 48.0179L11.8622 49.1346L12.7302 53.1547H7.95605Z" fill="#4A6A74"/>
<path fill-rule="evenodd" clip-rule="evenodd" d="M6.2992 38.4971C6.2992 38.4971 7.49608 45.6096 7.76125 48.4332C7.76125 48.4332 5.43151 53.7062 10.2544 53.5634C10.2544 53.5634 14.8272 54.5357 14.7643 49.0092C14.7013 43.4827 14.4718 42.6033 14.4718 42.6033L6.2992 38.4971Z" fill="#357589"/>
<path fill-rule="evenodd" clip-rule="evenodd" d="M4.78773 13.6221C4.78773 13.6221 3.04869 22.2002 2.89492 25.1632C2.72235 28.4881 2.66616 28.9406 2.66616 28.9406C2.66616 28.9406 14.3925 40.1967 21.8409 30.2666C29.2893 20.3365 27.4381 22.8304 28.6359 21.0394C28.6359 21.0394 25.493 13.1625 25.4184 12.2505C25.4184 12.2505 22.9197 15.8049 20.0797 12.3031C20.0797 12.3031 16.5624 6.01303 14.1775 7.96362C14.1775 7.96362 11.6703 9.32983 10.1534 13.412C10.1534 13.412 9.61894 14.844 6.98747 14.65C6.98747 14.65 5.98402 13.9592 4.78773 13.6221Z" fill="url(#paint0_diamond_301_54)"/>
<path fill-rule="evenodd" clip-rule="evenodd" d="M10.464 1.76494C10.464 1.76494 6.78407 11.9522 4.98744 13.7884C4.09111 14.7045 0.848362 14.2658 0.407653 12.1569C0.201143 11.1687 0.696529 9.85704 1.54275 8.27942C6.38779 -0.75315 9.4525 0.0798017 10.464 1.76494Z" fill="url(#paint1_linear_301_54)"/>
<path d="M20.3254 48.4646V46.0078L23.1465 47.5712L20.3254 48.4646Z" fill="#1E6378"/>
<path fill-rule="evenodd" clip-rule="evenodd" d="M7.9976 4.91655L17.8742 1.57032Z" fill="#6FA7B9"/>
<path fill-rule="evenodd" clip-rule="evenodd" d="M22.4667 3.88796C24.6768 7.51214 28.2925 14.8981 23.0455 15.1171C17.8381 15.3343 19.1695 8.25563 14.0232 9.72402C11.3106 10.498 11.2749 15.8558 7.26059 15.7226C1.569 15.5338 5.90534 7.1271 7.01271 5.43646C12.8208 -3.43079 20.5199 0.695376 22.4667 3.88796Z" fill="#6FA7B9"/>
<path fill-rule="evenodd" clip-rule="evenodd" d="M3.33418 21.6C3.33418 21.6 10.5366 26.4073 16.8081 25.1632C23.6137 23.8132 25.0377 22.4561 27.8994 19.599C27.8994 19.599 32.5168 26.5023 34.0857 28.299C35.7188 30.1694 38.9858 34.9115 37.0471 34.9765C33.2418 35.1042 23.6719 36.4463 20.7982 39.2036C20.7982 39.2036 20.5283 44.0402 20.3779 48.0782C20.2059 52.6946 19.2126 53.6464 16.6611 53.9387C14.1048 54.2316 12.6189 53.3794 12.6189 53.3794C12.6189 53.3794 10.0376 51.2204 13.6921 48.1899L13.9668 43.9854C13.9668 43.9854 7.0173 41.7803 4.24805 37.0195C1.47882 32.2586 3.33418 21.6 3.33418 21.6Z" fill="url(#paint2_linear_301_54)"/>
<path fill-rule="evenodd" clip-rule="evenodd" d="M21.8954 4.37614C23.5866 7.64518 24.247 9.0467 24.5464 9.82437C25.3211 11.8361 26.3255 13.8592 28.5784 13.3774C33.7377 12.2741 30.8042 7.63848 30.8042 7.63848C30.8042 7.63848 29.9675 5.97771 28.4902 4.2366C27.3266 2.86522 25.7785 1.11578 24.7899 0.484443C22.835 -0.764007 19.8147 0.354563 21.8954 4.37614Z" fill="url(#paint3_linear_301_54)"/>
<path fill-rule="evenodd" clip-rule="evenodd" d="M13.2543 13.59C13.1828 13.0339 13.9592 12.4426 14.8203 12.3318C15.6816 12.2211 16.6606 12.5505 16.8081 13.2338C16.9557 13.9172 15.9679 14.4453 15.1067 14.556C14.2455 14.6667 13.326 14.146 13.2543 13.59Z" fill="#447989"/>
<path fill-rule="evenodd" clip-rule="evenodd" d="M37.1825 32.9042C37.1825 32.9042 26.7447 35.3381 23.733 37.0963C23.733 37.0963 17.2568 39.1059 18.8647 44.3353C18.8647 44.3353 19.6324 46.7519 22.8633 47.4664C22.8633 47.4664 18.4537 48.5328 18.0688 50.1453C16.7277 55.7646 27.0155 53.4329 30.6825 53.2612C35.1826 53.0505 38.7886 50.1464 39.5545 46.6048C40.7569 41.045 38.1645 34.6349 37.1825 32.9042Z" fill="url(#paint4_linear_301_54)"/>
<defs>
<radialGradient id="paint0_diamond_301_54" cx="0" cy="0" r="1" gradientUnits="userSpaceOnUse" gradientTransform="translate(14.9722 16.2) rotate(87.6906) scale(33.7774 37.5588)">
<stop offset="0.283506" stop-color="#F2FAFD"/>
<stop offset="1" stop-color="#64BDDA"/>
</radialGradient>
<linearGradient id="paint1_linear_301_54" x1="9.52778" y1="-1.35" x2="1.46769" y2="14.9029" gradientUnits="userSpaceOnUse">
<stop stop-color="#277E99"/>
<stop offset="1" stop-color="#1F677D"/>
</linearGradient>
<linearGradient id="paint2_linear_301_54" x1="14.9722" y1="25.65" x2="25.6964" y2="64.8451" gradientUnits="userSpaceOnUse">
<stop stop-color="#66A0B3"/>
<stop offset="0.563467" stop-color="#49889B"/>
<stop offset="1" stop-color="#357589"/>
</linearGradient>
<linearGradient id="paint3_linear_301_54" x1="24.5" y1="0" x2="32.55" y2="21.6434" gradientUnits="userSpaceOnUse">
<stop stop-color="#1F7C98"/>
<stop offset="1" stop-color="#084F65"/>
</linearGradient>
<linearGradient id="paint4_linear_301_54" x1="24.5" y1="37.8" x2="40.6551" y2="60.8748" gradientUnits="userSpaceOnUse">
<stop stop-color="#357589"/>
<stop offset="1" stop-color="#1F4B58"/>
</linearGradient>
</defs>
</svg>
