<svg width="21" height="21" viewBox="0 0 21 21" fill="none" xmlns="http://www.w3.org/2000/svg">
<path d="M3.9375 12.4688C3.41536 12.4687 2.9146 12.2613 2.54538 11.8921C2.17617 11.5229 1.96875 11.0221 1.96875 10.5C1.96875 9.97786 2.17617 9.4771 2.54538 9.10788C2.9146 8.73867 3.41536 8.53125 3.9375 8.53125C4.45964 8.53125 4.9604 8.73867 5.32962 9.10788C5.69883 9.4771 5.90625 9.97786 5.90625 10.5C5.90625 11.0221 5.69883 11.5229 5.32962 11.8921C4.9604 12.2613 4.45964 12.4687 3.9375 12.4688ZM10.5 12.4688C9.97786 12.4687 9.4771 12.2613 9.10788 11.8921C8.73867 11.5229 8.53125 11.0221 8.53125 10.5C8.53125 9.97786 8.73867 9.4771 9.10788 9.10788C9.4771 8.73867 9.97786 8.53125 10.5 8.53125C11.0221 8.53125 11.5229 8.73867 11.8921 9.10788C12.2613 9.4771 12.4687 9.97786 12.4688 10.5C12.4687 11.0221 12.2613 11.5229 11.8921 11.8921C11.5229 12.2613 11.0221 12.4687 10.5 12.4688ZM17.0625 12.4688C16.5404 12.4687 16.0396 12.2613 15.6704 11.8921C15.3012 11.5229 15.0938 11.0221 15.0938 10.5C15.0938 9.97786 15.3012 9.4771 15.6704 9.10788C16.0396 8.73867 16.5404 8.53125 17.0625 8.53125C17.5846 8.53125 18.0854 8.73867 18.4546 9.10788C18.8238 9.4771 19.0312 9.97786 19.0312 10.5C19.0312 11.0221 18.8238 11.5229 18.4546 11.8921C18.0854 12.2613 17.5846 12.4687 17.0625 12.4688Z" fill="#C4C4C4"/>
</svg>
