<svg width="16" height="16" viewBox="0 0 16 16" fill="none" xmlns="http://www.w3.org/2000/svg">
<path fill-rule="evenodd" clip-rule="evenodd" d="M10.646 0.645978C10.6925 0.599415 10.7477 0.562472 10.8084 0.537266C10.8691 0.512059 10.9343 0.499084 11 0.499084C11.0658 0.499084 11.1309 0.512059 11.1917 0.537266C11.2524 0.562472 11.3076 0.599415 11.354 0.645978L15.354 4.64598C15.4006 4.69242 15.4375 4.7476 15.4627 4.80834C15.4879 4.86909 15.5009 4.93421 15.5009 4.99998C15.5009 5.06575 15.4879 5.13087 15.4627 5.19161C15.4375 5.25236 15.4006 5.30753 15.354 5.35398L13.452 7.25598L12.623 10.569C12.56 10.8212 12.4324 11.0528 12.2529 11.2409C12.0734 11.429 11.8481 11.5672 11.599 11.642L1.25403 14.746L4.35803 4.39998C4.43285 4.15124 4.57097 3.92619 4.75889 3.74686C4.9468 3.56754 5.17806 3.44008 5.43003 3.37698L8.74303 2.54898L10.646 0.645978ZM8.84603 3.55398L5.67303 4.34698C5.5888 4.368 5.5115 4.41059 5.44873 4.47056C5.38595 4.53052 5.33988 4.6058 5.31503 4.68898L2.74503 13.254L11.312 10.684C11.3947 10.6589 11.4695 10.6129 11.5291 10.5503C11.5887 10.4877 11.631 10.4108 11.652 10.327L12.446 7.15298L8.84603 3.55298V3.55398Z" fill="black"/>
<path fill-rule="evenodd" clip-rule="evenodd" d="M2.83197 13.228L7.99997 9C8.19775 9 8.39109 8.94135 8.55554 8.83147C8.71999 8.72159 8.84816 8.56541 8.92385 8.38268C8.99954 8.19996 9.01934 7.99889 8.98076 7.80491C8.94217 7.61093 8.84693 7.43275 8.70708 7.29289C8.56723 7.15304 8.38904 7.0578 8.19506 7.01922C8.00108 6.98063 7.80001 7.00043 7.61729 7.07612C7.43456 7.15181 7.27838 7.27998 7.1685 7.44443C7.05862 7.60888 6.99997 7.80222 6.99997 8L2.77197 13.168L2.74597 13.254L2.83197 13.228V13.228Z" fill="black"/>
</svg>
