<svg width="20" height="13" viewBox="0 0 20 13" fill="none" xmlns="http://www.w3.org/2000/svg">
<path d="M14.5001 0C15.3282 0 16.0001 0.671562 16.0001 1.5C16.0001 1.97187 15.7782 2.41562 15.4001 2.7L14.9657 3.025C12.8845 3.225 11.1407 4.5875 10.3938 6.45625L8.60008 7.8C8.42678 7.92934 8.21633 7.99922 8.00008 7.99922C7.78384 7.99922 7.57338 7.92934 7.40008 7.8L0.940652 2.7C0.562933 2.41562 0.340652 1.97187 0.340652 1.5C0.340652 0.671562 1.01221 0 1.84065 0H14.5001ZM9.20008 8.6L10.0251 7.98125C10.0095 8.15312 10.0001 8.325 10.0001 8.5C10.0001 9.82812 10.472 11.05 11.2563 12H2.34065C1.23596 12 0.340652 11.1031 0.340652 10V3.5L6.80009 8.6C7.14607 8.86013 7.56722 9.00078 8.00008 9.00078C8.43295 9.00078 8.85409 8.86013 9.20008 8.6ZM20.0001 8.5C20.0001 10.9844 17.9845 13 15.5001 13C13.0157 13 11.0001 10.9844 11.0001 8.5C11.0001 6.01562 13.0157 4 15.5001 4C17.9845 4 20.0001 6.01562 20.0001 8.5ZM16.897 7.14688L15.0001 9.04375L14.1032 8.14688C13.9095 7.95 13.5907 7.95 13.397 8.14688C13.2001 8.34063 13.2001 8.65937 13.397 8.85312L14.647 10.1031C14.8407 10.3 15.1595 10.3 15.3532 10.1031L17.6032 7.85312C17.8001 7.65937 17.8001 7.34063 17.6032 7.14688C17.4095 6.95 17.0907 6.95 16.897 7.14688Z" fill="#0058DD"/>
</svg>
