<svg width="18" height="12" viewBox="0 0 18 12" fill="none" xmlns="http://www.w3.org/2000/svg">
<path d="M12.7435 0C13.4888 0 14.0935 0.587617 14.0935 1.3125C14.0935 1.72539 13.8938 2.11367 13.5535 2.3625L13.1626 2.64688C11.2894 2.82188 9.72005 4.01406 9.04786 5.64922L7.43349 6.825C7.27752 6.93818 7.08811 6.99932 6.89349 6.99932C6.69887 6.99932 6.50946 6.93818 6.35349 6.825L0.54 2.3625C0.200053 2.11367 0 1.72539 0 1.3125C0 0.587617 0.604406 0 1.35 0H12.7435ZM7.97349 7.525L8.71599 6.98359C8.70193 7.13398 8.69349 7.28437 8.69349 7.4375C8.69349 8.59961 9.11818 9.66875 9.82411 10.5H1.8C0.805781 10.5 0 9.71523 0 8.75V3.0625L5.81349 7.525C6.12488 7.75261 6.50391 7.87568 6.89349 7.87568C7.28307 7.87568 7.6621 7.75261 7.97349 7.525Z" fill="#DD2209"/>
<path fill-rule="evenodd" clip-rule="evenodd" d="M10.1286 9.03088C10.3296 9.51619 10.6243 9.95716 10.9957 10.3286C11.7459 11.0788 12.7633 11.5002 13.8242 11.5002C14.8851 11.5002 15.9026 11.0788 16.6527 10.3286C17.4029 9.57844 17.8243 8.561 17.8243 7.5001C17.8243 6.43921 17.4029 5.42177 16.6527 4.6716C16.2813 4.30016 15.8403 4.00551 15.355 3.80449C14.8697 3.60347 14.3495 3.5 13.8242 3.5C13.2989 3.5 12.7788 3.60347 12.2934 3.80449C11.8081 4.00551 11.3672 4.30016 10.9957 4.6716C10.6243 5.04305 10.3296 5.48401 10.1286 5.96933C9.92758 6.45464 9.82411 6.9748 9.82411 7.5001C9.82411 8.0254 9.92758 8.54556 10.1286 9.03088ZM12.298 5.523C12.4169 5.5209 12.5319 5.56503 12.6189 5.64609L13.8243 6.85146L15.0297 5.64609C15.0717 5.60101 15.1223 5.56484 15.1786 5.53976C15.2349 5.51468 15.2957 5.50119 15.3573 5.50011C15.4189 5.49902 15.4801 5.51035 15.5373 5.53343C15.5944 5.55651 15.6463 5.59087 15.6899 5.63444C15.7335 5.67802 15.7678 5.72993 15.7909 5.78707C15.814 5.84421 15.8253 5.90541 15.8242 5.96703C15.8231 6.02864 15.8097 6.08941 15.7846 6.1457C15.7595 6.20199 15.7233 6.25265 15.6783 6.29467L14.4729 7.50003L15.6783 8.7054C15.7233 8.74742 15.7595 8.79808 15.7846 8.85437C15.8097 8.91066 15.8231 8.97143 15.8242 9.03304C15.8253 9.09466 15.814 9.15586 15.7909 9.213C15.7678 9.27014 15.7335 9.32205 15.6899 9.36563C15.6463 9.4092 15.5944 9.44356 15.5373 9.46664C15.4801 9.48972 15.4189 9.50105 15.3573 9.49996C15.2957 9.49888 15.2349 9.48539 15.1786 9.46031C15.1223 9.43523 15.0717 9.39906 15.0297 9.35398L13.8243 8.14861L12.6189 9.35398C12.5769 9.39906 12.5263 9.43523 12.47 9.46031C12.4137 9.48539 12.3529 9.49888 12.2913 9.49996C12.2297 9.50105 12.1685 9.48972 12.1113 9.46664C12.0542 9.44356 12.0023 9.4092 11.9587 9.36563C11.9151 9.32205 11.8808 9.27014 11.8577 9.213C11.8346 9.15586 11.8233 9.09466 11.8244 9.03304C11.8255 8.97143 11.839 8.91066 11.864 8.85437C11.8891 8.79808 11.9253 8.74742 11.9704 8.7054L13.1757 7.50003L11.9704 6.29467C11.8893 6.20767 11.8452 6.09262 11.8473 5.97373C11.8494 5.85484 11.8975 5.74141 11.9816 5.65734C12.0657 5.57326 12.1791 5.5251 12.298 5.523Z" fill="#DD2209"/>
</svg>
