<svg width="12" height="18" viewBox="0 0 12 18" fill="none" xmlns="http://www.w3.org/2000/svg">
<path d="M3.214 3.21395C3.95289 2.47505 4.95505 2.05994 6 2.05994C7.04495 2.05994 8.04711 2.47505 8.786 3.21395C9.52489 3.95284 9.94 4.955 9.94 5.99996C9.94 7.04492 9.52489 8.04707 8.786 8.78597C8.04711 9.52487 7.04495 9.93997 6 9.93997C4.95505 9.93997 3.95289 9.52487 3.214 8.78597C2.47511 8.04707 2.06 7.04492 2.06 5.99996C2.06 4.955 2.47511 3.95284 3.214 3.21395ZM1.75793 3.24168C1.22414 4.06259 0.940012 5.02076 0.94 5.99996C0.939984 7.25437 1.40591 8.46406 2.24738 9.39436C3.07671 10.3112 4.21254 10.8923 5.44 11.029V12.94H3.5C3.35148 12.94 3.20904 12.999 3.10402 13.104C2.999 13.209 2.94 13.3515 2.94 13.5C2.94 13.6485 2.999 13.7909 3.10402 13.896C3.20904 14.001 3.35148 14.06 3.5 14.06H5.44V16.5C5.44 16.6485 5.499 16.791 5.60402 16.896C5.70904 17.001 5.85148 17.06 6 17.06C6.14852 17.06 6.29096 17.001 6.39598 16.896C6.501 16.791 6.56 16.6485 6.56 16.5V14.06H8.5C8.64852 14.06 8.79096 14.001 8.89598 13.896C9.001 13.7909 9.06 13.6485 9.06 13.5C9.06 13.3515 9.001 13.209 8.89598 13.104C8.79096 12.999 8.64852 12.94 8.5 12.94H6.56V11.029C7.51444 10.9227 8.41936 10.5469 9.16867 9.94505C9.93209 9.33186 10.5012 8.51033 10.807 7.58009C11.1127 6.64985 11.142 5.65088 10.8913 4.70433C10.6406 3.75777 10.1206 2.90431 9.39437 2.24743C8.66819 1.59056 7.76701 1.1585 6.80013 1.00366C5.83325 0.848826 4.84222 0.977856 3.94722 1.37511C3.05222 1.77236 2.29171 2.42076 1.75793 3.24168Z" fill="black" stroke="black" stroke-width="0.12"/>
</svg>
