<svg width="11" height="13" viewBox="0 0 11 13" fill="none" xmlns="http://www.w3.org/2000/svg">
<path d="M3.57293 2.58936C4.08402 2.07291 4.77722 1.78278 5.50001 1.78278C6.2228 1.78278 6.916 2.07291 7.42709 2.58936C7.93818 3.10581 8.22531 3.80626 8.22531 4.53663C8.22531 5.267 7.93818 5.96744 7.42709 6.48389C6.916 7.00034 6.2228 7.29047 5.50001 7.29047C4.77722 7.29047 4.08402 7.00034 3.57293 6.48389C3.06184 5.96744 2.77471 5.267 2.77471 4.53663C2.77471 3.80626 3.06184 3.10581 3.57293 2.58936ZM2.56576 2.60875C2.19654 3.18252 2.00001 3.85222 2 4.53663C1.99999 5.41339 2.32227 6.25889 2.90432 6.90912C3.47797 7.54994 4.26362 7.9561 5.11266 8.05164V9.38732H3.77076C3.66802 9.38732 3.5695 9.42856 3.49686 9.50195C3.42421 9.57534 3.3834 9.67494 3.3834 9.77873C3.3834 9.88253 3.42421 9.98206 3.49686 10.0555C3.5695 10.1289 3.66802 10.1701 3.77076 10.1701H5.11266V11.6086C5.11266 11.7124 5.15347 11.812 5.22611 11.8854C5.29875 11.9588 5.39728 12 5.50001 12C5.60274 12 5.70127 11.9588 5.77391 11.8854C5.84655 11.812 5.88736 11.7124 5.88736 11.6086V10.1701H7.22926C7.33199 10.1701 7.43052 10.1289 7.50316 10.0555C7.5758 9.98206 7.61662 9.88253 7.61662 9.77873C7.61662 9.67494 7.5758 9.57534 7.50316 9.50195C7.43052 9.42856 7.33199 9.38732 7.22926 9.38732H5.88736V8.05164C6.54755 7.97735 7.17348 7.71468 7.69178 7.29402C8.21984 6.86544 8.6135 6.29124 8.82502 5.64105C9.03647 4.99086 9.05674 4.29264 8.88333 3.63106C8.70992 2.96946 8.35023 2.37294 7.8479 1.91382C7.3456 1.45471 6.72225 1.15272 6.05346 1.0445C5.38467 0.936276 4.69917 1.02646 4.0801 1.30412C3.46103 1.58177 2.93498 2.03497 2.56576 2.60875Z" fill="black" stroke="black" stroke-width="0.12"/>
</svg>
