<svg width="11" height="11" viewBox="0 0 11 11" fill="none" xmlns="http://www.w3.org/2000/svg">
<path d="M6.20376 1.60932C6.2707 1.67626 6.36149 1.71387 6.45615 1.71387H8.7814L6.23928 4.256C5.60275 3.747 4.79667 3.4976 3.98311 3.55882C3.15803 3.62091 2.38838 3.99774 1.83332 4.61136C1.27828 5.22498 0.980298 6.02846 1.00101 6.85562C1.02173 7.68275 1.35956 8.4703 1.94462 9.05541C2.52968 9.64046 3.31724 9.97827 4.14439 9.99899C4.97154 10.0197 5.77501 9.72173 6.38863 9.1667C7.00222 8.61167 7.37904 7.84196 7.44119 7.01688C7.50237 6.20333 7.25297 5.39724 6.74399 4.76071L9.28614 2.21858V4.54384C9.28614 4.6385 9.32374 4.72929 9.39067 4.79623C9.45759 4.86317 9.54835 4.90077 9.64307 4.90077C9.73772 4.90077 9.82848 4.86317 9.89541 4.79623C9.96239 4.72929 10 4.6385 10 4.54384V1.35693C10 1.26227 9.96239 1.17148 9.89541 1.10454C9.82848 1.03761 9.73772 1 9.64307 1H6.45615C6.36149 1 6.2707 1.03761 6.20376 1.10454C6.13682 1.17148 6.09922 1.26227 6.09922 1.35693C6.09922 1.4516 6.13682 1.54239 6.20376 1.60932ZM2.4496 4.99893C2.92056 4.52797 3.5593 4.26339 4.22533 4.26339C4.89136 4.26339 5.53011 4.52797 6.00106 4.99893C6.47202 5.46988 6.7366 6.10864 6.7366 6.77467C6.7366 7.44073 6.47202 8.07945 6.00106 8.55041C5.53011 9.02137 4.89136 9.28595 4.22533 9.28595C3.5593 9.28595 2.92056 9.02137 2.4496 8.55041C1.97865 8.07945 1.71406 7.44073 1.71406 6.77467C1.71406 6.10864 1.97865 5.46988 2.4496 4.99893Z" fill="black" stroke="black" stroke-width="0.12"/>
</svg>
