<svg width="16" height="16" viewBox="0 0 16 16" fill="none" xmlns="http://www.w3.org/2000/svg">
<path d="M9.10397 1.89598C9.20899 2.001 9.35143 2.06 9.49995 2.06H13.1481L9.1597 6.0484C8.16103 5.24982 6.89634 4.85853 5.61992 4.95458C4.32543 5.052 3.1179 5.64321 2.24706 6.60594C1.37623 7.56866 0.908722 8.82926 0.941221 10.127C0.973721 11.4247 1.50375 12.6603 2.42168 13.5783C3.3396 14.4962 4.57522 15.0262 5.87296 15.0587C7.1707 15.0912 8.43129 14.6237 9.39402 13.7529C10.3567 12.8821 10.9479 11.6745 11.0454 10.38C11.1414 9.10361 10.7501 7.83892 9.95155 6.84026L13.94 2.85185V6.5C13.94 6.64852 13.999 6.79096 14.104 6.89598C14.209 7.001 14.3514 7.06 14.5 7.06C14.6485 7.06 14.7909 7.001 14.8959 6.89598C15.001 6.79096 15.06 6.64852 15.06 6.5V1.5C15.06 1.35148 15.001 1.20904 14.8959 1.10402C14.7909 0.999 14.6485 0.94 14.5 0.94H9.49995C9.35143 0.94 9.20899 0.999 9.10397 1.10402C8.99895 1.20904 8.93995 1.35148 8.93995 1.5C8.93995 1.64852 8.99895 1.79096 9.10397 1.89598ZM3.21395 7.214C3.95285 6.47511 4.955 6.06 5.99995 6.06C7.04491 6.06 8.04706 6.47511 8.78595 7.214C9.52485 7.95289 9.93995 8.95505 9.93995 10C9.93995 11.045 9.52485 12.0471 8.78595 12.786C8.04706 13.5249 7.04491 13.94 5.99995 13.94C4.955 13.94 3.95285 13.5249 3.21395 12.786C2.47506 12.0471 2.05995 11.045 2.05995 10C2.05995 8.95505 2.47506 7.95289 3.21395 7.214Z" fill="black" stroke="black" stroke-width="0.12"/>
</svg>
