<svg width="26" height="26" viewBox="0 0 26 26" fill="none" xmlns="http://www.w3.org/2000/svg">
<path d="M13 1.94189C0.323008 1.94189 0.0244141 16.1525 0.0244141 18.9638C0.0244141 21.7791 5.83176 24.0581 13 24.0581C20.1663 24.0581 25.9757 21.7791 25.9757 18.9638C25.9757 16.1525 25.675 1.94189 13 1.94189Z" fill="#BEBEBE"/>
<path d="M7.42871 14.8571C9.9049 17.9524 16.0954 17.9524 18.5716 14.8571" stroke="black" stroke-linecap="round"/>
<path d="M6.71202 10.6532C6.72217 11.7399 7.46967 12.6154 8.3817 12.6073C9.29374 12.5971 10.025 11.7095 10.0148 10.6227C10.0047 9.53195 9.25514 8.65648 8.34514 8.66461C7.43311 8.67273 6.70186 9.56242 6.71202 10.6532Z" fill="black"/>
<path d="M18.9869 10.6349C18.9889 11.7216 18.2515 12.6052 17.3416 12.6073C16.4295 12.6093 15.6881 11.7298 15.6841 10.643C15.682 9.55226 16.4214 8.66867 17.3334 8.66664C18.2434 8.66461 18.9848 9.54414 18.9869 10.6349Z" fill="black"/>
</svg>
