<svg width="18" height="18" viewBox="0 0 18 18" fill="none" xmlns="http://www.w3.org/2000/svg">
<path d="M16.4999 3.82C15.8299 2.445 13.8999 1.32 11.6549 1.975C10.5822 2.28487 9.64619 2.9494 8.99993 3.86C8.35368 2.9494 7.4177 2.28487 6.34493 1.975C4.09493 1.33 2.16993 2.445 1.49993 3.82C0.559934 5.745 0.949934 7.91 2.65993 10.255C3.99993 12.09 5.91493 13.95 8.69493 16.11C8.78279 16.1785 8.89101 16.2157 9.00243 16.2157C9.11385 16.2157 9.22208 16.1785 9.30993 16.11C12.0849 13.955 14.0049 12.11 15.3449 10.255C17.0499 7.91 17.4399 5.745 16.4999 3.82V3.82Z" fill="#C4C4C4"/>
</svg>
