<svg width="50" height="23" viewBox="0 0 50 23" fill="none" xmlns="http://www.w3.org/2000/svg">
<rect width="50" height="23" rx="11.5" fill="#FDEEEC"/>
<path d="M18.2643 7.3H20.0463V15H18.2643V7.3ZM14.7663 15H12.9843V7.3H14.7663V15ZM18.3963 11.843H14.6343V10.336H18.3963V11.843ZM25.6081 15.132C24.9994 15.132 24.4347 15.033 23.9141 14.835C23.4007 14.637 22.9534 14.3583 22.5721 13.999C22.1981 13.6397 21.9047 13.218 21.6921 12.734C21.4867 12.25 21.3841 11.722 21.3841 11.15C21.3841 10.578 21.4867 10.05 21.6921 9.566C21.9047 9.082 22.2017 8.66033 22.5831 8.301C22.9644 7.94167 23.4117 7.663 23.9251 7.465C24.4384 7.267 24.9957 7.168 25.5971 7.168C26.2057 7.168 26.7631 7.267 27.2691 7.465C27.7824 7.663 28.2261 7.94167 28.6001 8.301C28.9814 8.66033 29.2784 9.082 29.4911 9.566C29.7037 10.0427 29.8101 10.5707 29.8101 11.15C29.8101 11.722 29.7037 12.2537 29.4911 12.745C29.2784 13.229 28.9814 13.6507 28.6001 14.01C28.2261 14.362 27.7824 14.637 27.2691 14.835C26.7631 15.033 26.2094 15.132 25.6081 15.132ZM25.5971 13.614C25.9417 13.614 26.2571 13.5553 26.5431 13.438C26.8364 13.3207 27.0931 13.152 27.3131 12.932C27.5331 12.712 27.7017 12.4517 27.8191 12.151C27.9437 11.8503 28.0061 11.5167 28.0061 11.15C28.0061 10.7833 27.9437 10.4497 27.8191 10.149C27.7017 9.84833 27.5331 9.588 27.3131 9.368C27.1004 9.148 26.8474 8.97933 26.5541 8.862C26.2607 8.74467 25.9417 8.686 25.5971 8.686C25.2524 8.686 24.9334 8.74467 24.6401 8.862C24.3541 8.97933 24.1011 9.148 23.8811 9.368C23.6611 9.588 23.4887 9.84833 23.3641 10.149C23.2467 10.4497 23.1881 10.7833 23.1881 11.15C23.1881 11.5093 23.2467 11.843 23.3641 12.151C23.4887 12.4517 23.6574 12.712 23.8701 12.932C24.0901 13.152 24.3467 13.3207 24.6401 13.438C24.9334 13.5553 25.2524 13.614 25.5971 13.614ZM32.6369 15V8.752H30.1729V7.3H36.8829V8.752H34.4189V15H32.6369Z" fill="#E62F17"/>
</svg>
