<svg width="31" height="23" viewBox="0 0 31 23" fill="none" xmlns="http://www.w3.org/2000/svg">
<path d="M18.4332 3.45H4.21455C3.10727 3.45 2 4.53611 2 5.62222V20.8278C2 22.0225 2.99655 23 4.21455 23H24.1455C25.2527 23 26.36 21.9139 26.36 20.8278V12.804C22.3 13.3145 16.5437 10.35 18.4332 3.45ZM7.12667 17.7758L9.88378 14.3002C9.93482 14.2362 9.99989 14.1841 10.0742 14.148C10.1485 14.1119 10.2301 14.0926 10.313 14.0916C10.3959 14.0905 10.4779 14.1078 10.5531 14.142C10.6283 14.1762 10.6948 14.2266 10.7475 14.2894L13.0727 17.0373L16.5053 12.7037C16.7267 12.4213 17.1696 12.4213 17.3911 12.7145L21.2776 17.7975C21.3393 17.8782 21.3769 17.9741 21.3861 18.0746C21.3953 18.175 21.3759 18.276 21.3299 18.3662C21.2839 18.4564 21.2132 18.5323 21.1258 18.5853C21.0383 18.6383 20.9375 18.6664 20.8347 18.6664H7.55851C7.10453 18.6556 6.83878 18.1342 7.12667 17.7758Z" fill="#DD0000"/>
<path fill-rule="evenodd" clip-rule="evenodd" d="M31 5.75C31 8.92448 28.4021 11.5 25.2 11.5C21.9979 11.5 19.4 8.92448 19.4 5.75C19.4 2.57552 21.9979 0 25.2 0C28.4021 0 31 2.57552 31 5.75ZM24.5556 6.44479L27.0004 4.02101C27.2501 3.76944 27.661 3.76944 27.9107 4.02101C28.1644 4.26858 28.1644 4.67587 27.9107 4.92344L25.0107 7.79844C24.761 8.05 24.3501 8.05 24.1004 7.79844L22.4893 6.20121C22.2356 5.95364 22.2356 5.54635 22.4893 5.29878C22.739 5.04722 23.1499 5.04722 23.3996 5.29878L24.5556 6.44479Z" fill="#DD0000"/>
</svg>
