<svg width="16" height="16" viewBox="0 0 16 16" fill="none" xmlns="http://www.w3.org/2000/svg">
<path d="M3.6275 2H11C11.7956 2 12.5587 2.31607 13.1213 2.87868C13.6839 3.44129 14 4.20435 14 5V12.3725C14.4389 12.2173 14.8188 11.9299 15.0875 11.5497C15.3561 11.1696 15.5002 10.7155 15.5 10.25V5C15.5 3.80653 15.0259 2.66193 14.182 1.81802C13.3381 0.97411 12.1935 0.5 11 0.5H5.75C5.28451 0.49976 4.8304 0.64389 4.45026 0.91254C4.07012 1.18119 3.78266 1.56113 3.6275 2ZM2.75 3.5C2.15326 3.5 1.58097 3.73705 1.15901 4.15901C0.73705 4.58097 0.5 5.15326 0.5 5.75V13.25C0.5 13.8467 0.73705 14.419 1.15901 14.841C1.58097 15.2629 2.15326 15.5 2.75 15.5H10.25C10.8467 15.5 11.419 15.2629 11.841 14.841C12.2629 14.419 12.5 13.8467 12.5 13.25V5.75C12.5 5.15326 12.2629 4.58097 11.841 4.15901C11.419 3.73705 10.8467 3.5 10.25 3.5H2.75Z" fill="#F0F1F2"/>
</svg>
