<svg width="24" height="24" viewBox="0 0 24 24" fill="none" xmlns="http://www.w3.org/2000/svg">
<path d="M7.6275 6H15C15.7956 6 16.5587 6.31607 17.1213 6.87868C17.6839 7.44129 18 8.20435 18 9V16.3725C18.4389 16.2173 18.8188 15.9299 19.0875 15.5497C19.3561 15.1696 19.5002 14.7155 19.5 14.25V9C19.5 7.80653 19.0259 6.66193 18.182 5.81802C17.3381 4.97411 16.1935 4.5 15 4.5H9.75C9.28451 4.49976 8.8304 4.64389 8.45026 4.91254C8.07012 5.18119 7.78266 5.56113 7.6275 6ZM6.75 7.5C6.15326 7.5 5.58097 7.73705 5.15901 8.15901C4.73705 8.58097 4.5 9.15326 4.5 9.75V17.25C4.5 17.8467 4.73705 18.419 5.15901 18.841C5.58097 19.2629 6.15326 19.5 6.75 19.5H14.25C14.8467 19.5 15.419 19.2629 15.841 18.841C16.2629 18.419 16.5 17.8467 16.5 17.25V9.75C16.5 9.15326 16.2629 8.58097 15.841 8.15901C15.419 7.73705 14.8467 7.5 14.25 7.5H6.75Z" fill="black"/>
</svg>
