<svg width="23" height="23" viewBox="0 0 23 23" fill="none" xmlns="http://www.w3.org/2000/svg">
<path d="M11.4998 2.3C16.5828 2.3 20.6998 6.417 20.6998 11.5C20.6998 16.583 16.5828 20.7 11.4998 20.7C6.4168 20.7 2.2998 16.583 2.2998 11.5C2.2998 6.417 6.4168 2.3 11.4998 2.3ZM12.6498 6.9C12.6498 6.2675 12.1323 5.75 11.4998 5.75C10.8673 5.75 10.3498 6.2675 10.3498 6.9C10.3498 7.5325 10.8673 8.05 11.4998 8.05C12.1323 8.05 12.6498 7.5325 12.6498 6.9ZM11.4998 17.25C12.1349 17.25 12.6498 16.7351 12.6498 16.1V10.8611C12.6498 10.226 12.1349 9.71111 11.4998 9.71111V9.71111C10.8647 9.71111 10.3498 10.226 10.3498 10.8611V16.1C10.3498 16.7351 10.8647 17.25 11.4998 17.25V17.25Z" fill="#CFCFCF"/>
</svg>
