<svg width="21" height="21" viewBox="0 0 21 21" fill="none" xmlns="http://www.w3.org/2000/svg">
<path d="M18.7031 10.5C18.7031 10.7611 18.5994 11.0115 18.4148 11.1961C18.2302 11.3807 17.9798 11.4844 17.7188 11.4844H3.28125C3.02018 11.4844 2.7698 11.3807 2.58519 11.1961C2.40059 11.0115 2.29688 10.7611 2.29688 10.5C2.29688 10.2389 2.40059 9.98855 2.58519 9.80394C2.7698 9.61934 3.02018 9.51562 3.28125 9.51562H17.7188C17.9798 9.51562 18.2302 9.61934 18.4148 9.80394C18.5994 9.98855 18.7031 10.2389 18.7031 10.5ZM3.28125 6.23438H17.7188C17.9798 6.23437 18.2302 6.13066 18.4148 5.94606C18.5994 5.76145 18.7031 5.51107 18.7031 5.25C18.7031 4.98893 18.5994 4.73855 18.4148 4.55394C18.2302 4.36934 17.9798 4.26562 17.7188 4.26562H3.28125C3.02018 4.26562 2.7698 4.36934 2.58519 4.55394C2.40059 4.73855 2.29688 4.98893 2.29688 5.25C2.29688 5.51107 2.40059 5.76145 2.58519 5.94606C2.7698 6.13066 3.02018 6.23438 3.28125 6.23438V6.23438ZM17.7188 14.7656H3.28125C3.02018 14.7656 2.7698 14.8693 2.58519 15.0539C2.40059 15.2385 2.29688 15.4889 2.29688 15.75C2.29688 16.0111 2.40059 16.2615 2.58519 16.4461C2.7698 16.6307 3.02018 16.7344 3.28125 16.7344H17.7188C17.9798 16.7344 18.2302 16.6307 18.4148 16.4461C18.5994 16.2615 18.7031 16.0111 18.7031 15.75C18.7031 15.4889 18.5994 15.2385 18.4148 15.0539C18.2302 14.8693 17.9798 14.7656 17.7188 14.7656Z" fill="black"/>
</svg>
