<svg width="20" height="20" viewBox="0 0 20 20" fill="none" xmlns="http://www.w3.org/2000/svg">
<path d="M10 0C8.02219 0 6.08879 0.58649 4.4443 1.6853C2.79981 2.78412 1.51809 4.3459 0.761209 6.17316C0.0043328 8.00042 -0.1937 10.0111 0.192152 11.9509C0.578004 13.8907 1.53041 15.6725 2.92894 17.0711C4.32746 18.4696 6.10929 19.422 8.0491 19.8078C9.98891 20.1937 11.9996 19.9957 13.8268 19.2388C15.6541 18.4819 17.2159 17.2002 18.3147 15.5557C19.4135 13.9112 20 11.9778 20 10C20 7.34783 18.9464 4.80429 17.0711 2.92893C15.1957 1.05357 12.6522 0 10 0ZM10 18.75C8.26942 18.75 6.57769 18.2368 5.13876 17.2754C3.69983 16.3139 2.57832 14.9473 1.91606 13.3485C1.25379 11.7496 1.08051 9.99029 1.41813 8.29296C1.75575 6.59562 2.58911 5.03652 3.81282 3.81281C5.03653 2.58911 6.59563 1.75575 8.29296 1.41813C9.9903 1.08051 11.7496 1.25379 13.3485 1.91605C14.9473 2.57832 16.3139 3.69983 17.2754 5.13876C18.2368 6.57769 18.75 8.26941 18.75 10C18.75 12.3206 17.8281 14.5462 16.1872 16.1872C14.5462 17.8281 12.3206 18.75 10 18.75Z" fill="#FFECEC"/>
<path d="M10 18.75C8.26942 18.75 6.57769 18.2368 5.13876 17.2754C3.69983 16.3139 2.57832 14.9473 1.91606 13.3485C1.25379 11.7496 1.08051 9.99029 1.41813 8.29296C1.75575 6.59562 2.58911 5.03652 3.81282 3.81281C5.03653 2.58911 6.59563 1.75575 8.29296 1.41813C9.9903 1.08051 11.7496 1.25379 13.3485 1.91605C14.9473 2.57832 16.3139 3.69983 17.2754 5.13876C18.2368 6.57769 18.75 8.26941 18.75 10C18.75 12.3206 17.8281 14.5462 16.1872 16.1872C14.5462 17.8281 12.3206 18.75 10 18.75Z" fill="#FFECEC"/>
<path d="M6 10H14" stroke="#D00000" stroke-width="1.2" stroke-linecap="round" stroke-linejoin="round"/>
</svg>
