<svg width="25" height="25" viewBox="0 0 25 25" fill="none" xmlns="http://www.w3.org/2000/svg">
<path d="M13.392 3.18752V3.3217L13.5253 3.33659C15.6039 3.56877 17.5417 4.50083 19.0206 5.97972C20.4995 7.45862 21.4316 9.39645 21.6637 11.475L21.6786 11.6084H21.8128H22.917C23.4094 11.6084 23.8087 12.0076 23.8087 12.5C23.8087 12.9925 23.4094 13.3917 22.917 13.3917H21.8128H21.6786L21.6637 13.525C21.4316 15.6036 20.4995 17.5414 19.0206 19.0203C17.5417 20.4992 15.6039 21.4313 13.5253 21.6634L13.392 21.6783V21.8125V22.9167C13.392 23.4091 12.9928 23.8083 12.5003 23.8083C12.0079 23.8083 11.6087 23.4091 11.6087 22.9167V21.8125V21.6783L11.4753 21.6634C9.39676 21.4313 7.45893 20.4992 5.98003 19.0203C4.50113 17.5414 3.56907 15.6036 3.3369 13.525L3.322 13.3917H3.18783H2.08366C1.59121 13.3917 1.19199 12.9925 1.19199 12.5C1.19199 12.0076 1.5912 11.6084 2.08366 11.6084H3.18783H3.322L3.3369 11.475C3.56907 9.39645 4.50113 7.45862 5.98003 5.97972C7.45893 4.50083 9.39676 3.56877 11.4753 3.33659L11.6087 3.3217V3.18752V2.08335C11.6087 1.5909 12.0079 1.19169 12.5003 1.19169C12.9928 1.19169 13.392 1.5909 13.392 2.08335V3.18752ZM5.05866 12.5C5.05866 16.6141 8.38623 19.9417 12.5003 19.9417C16.6144 19.9417 19.942 16.6141 19.942 12.5C19.942 8.38593 16.6144 5.05835 12.5003 5.05835C8.38623 5.05835 5.05866 8.38593 5.05866 12.5Z" fill="#404040" stroke="white" stroke-width="0.3"/>
<path opacity="0.3" d="M12.5003 14.5834C13.6509 14.5834 14.5837 13.6506 14.5837 12.5C14.5837 11.3494 13.6509 10.4167 12.5003 10.4167C11.3497 10.4167 10.417 11.3494 10.417 12.5C10.417 13.6506 11.3497 14.5834 12.5003 14.5834Z" fill="#404040"/>
<path d="M8.48301 12.5C8.48301 10.2807 10.2804 8.48331 12.4997 8.48331C14.7189 8.48331 16.5163 10.2807 16.5163 12.5C16.5163 14.7192 14.7189 16.5166 12.4997 16.5166C10.2804 16.5166 8.48301 14.7192 8.48301 12.5ZM10.2663 12.5C10.2663 13.7287 11.271 14.7333 12.4997 14.7333C13.7284 14.7333 14.733 13.7287 14.733 12.5C14.733 11.2713 13.7284 10.2666 12.4997 10.2666C11.271 10.2666 10.2663 11.2713 10.2663 12.5Z" fill="#404040" stroke="white" stroke-width="0.3"/>
<circle cx="12.5003" cy="12.5" r="2.23333" fill="#E6E6E6" stroke="#E6E6E6" stroke-width="0.3"/>
</svg>
