<svg width="28" height="28" viewBox="0 0 28 28" fill="none" xmlns="http://www.w3.org/2000/svg">
<path d="M14.6094 8.84976C14.6094 10.136 14.0984 11.3695 13.1889 12.2791C12.2794 13.1886 11.0458 13.6995 9.75961 13.6995C8.47338 13.6995 7.23982 13.1886 6.33032 12.2791C5.42081 11.3695 4.90986 10.136 4.90986 8.84976C4.90986 7.56352 5.42081 6.32997 6.33032 5.42046C7.23982 4.51096 8.47338 4 9.75961 4C11.0458 4 12.2794 4.51096 13.1889 5.42046C14.0984 6.32997 14.6094 7.56352 14.6094 8.84976V8.84976ZM21.399 13.6995C22.428 13.6995 23.4149 13.2908 24.1425 12.5631C24.8701 11.8355 25.2788 10.8487 25.2788 9.81971C25.2788 8.79072 24.8701 7.80388 24.1425 7.07627C23.4149 6.34867 22.428 5.9399 21.399 5.9399C20.37 5.9399 19.3832 6.34867 18.6556 7.07627C17.928 7.80388 17.5192 8.79072 17.5192 9.81971C17.5192 10.8487 17.928 11.8355 18.6556 12.5631C19.3832 13.2908 20.37 13.6995 21.399 13.6995ZM19.4591 18.7316V18.5493C19.4605 17.4997 19.12 16.4782 18.4892 15.6394H24.8385C26.1499 15.6394 27.2149 16.7025 27.2149 18.0158C27.2149 18.0158 27.2149 22.4291 21.3952 22.4291C20.2351 22.4291 19.3059 22.2545 18.5629 21.9732C19.0263 21.1241 19.3207 20.1932 19.43 19.2321C19.4417 19.1118 19.4494 19.009 19.4533 18.9237L19.4591 18.7297V18.7316ZM17.5192 18.5493C17.5192 17.7775 17.2127 17.0374 16.667 16.4917C16.1212 15.946 15.3811 15.6394 14.6094 15.6394H4.90986C4.13811 15.6394 3.39798 15.946 2.85228 16.4917C2.30657 17.0374 2 17.7775 2 18.5493V18.6948C2 18.6948 2 24.369 9.75961 24.369C17.1545 24.369 17.5018 19.2166 17.5192 18.7316V18.5493Z" fill="#A0A4A9"/>
</svg>
