<svg width="28" height="28" viewBox="0 0 28 28" fill="none" xmlns="http://www.w3.org/2000/svg">
<path d="M11.6354 3.00003C11.0948 3.00003 10.5764 3.21539 10.1941 3.59874C9.81185 3.98208 9.5971 4.50201 9.5971 5.04414C9.5971 5.58627 9.81185 6.1062 10.1941 6.48954C10.5764 6.87289 11.0948 7.08825 11.6354 7.08825L16.3472 7.08828C16.8878 7.08828 17.4063 6.87292 17.7885 6.48958C18.1708 6.10623 18.3855 5.58631 18.3855 5.04417C18.3855 4.50204 18.1708 3.98212 17.7885 3.59877C17.4063 3.21543 16.8878 3.00007 16.3472 3.00007L11.6354 3.00003Z" fill="#A0A4A9"/>
<path fill-rule="evenodd" clip-rule="evenodd" d="M5 7.40006C5 6.68194 5.31607 5.99323 5.87868 5.48544C6.44129 4.97765 7.20435 4.69238 8 4.69238C8 5.76956 8.15603 6.80263 8.99994 7.56431C9.84385 8.32599 10.3065 8.52828 11.4999 8.52828H16.4999C17.6934 8.52828 18.156 8.32599 18.9999 7.56431C19.8439 6.80263 20 5.76956 20 4.69238C20.7956 4.69238 21.5587 4.97765 22.1213 5.48544C22.6839 5.99323 23 6.68194 23 7.40006V22.2923C23 23.0104 22.6839 23.6991 22.1213 24.2069C21.5587 24.7147 20.7956 25 20 25H8C7.20435 25 6.44129 24.7147 5.87868 24.2069C5.31607 23.6991 5 23.0104 5 22.2923V7.40006ZM14.0291 18.8026L19.0625 13.7178C19.2372 13.5426 19.3354 13.3049 19.3354 13.0571C19.3354 12.8093 19.2372 12.5716 19.0625 12.3963C18.8878 12.2211 18.6508 12.1227 18.4036 12.1227C18.1565 12.1227 17.9195 12.2211 17.7448 12.3963L13.3702 16.8222L11.2372 14.6814C11.1507 14.5946 11.048 14.5258 10.9349 14.4788C10.8219 14.4318 10.7007 14.4077 10.5784 14.4077C10.3312 14.4077 10.0942 14.5061 9.91949 14.6814C9.83297 14.7681 9.76433 14.8711 9.71751 14.9845C9.67068 15.0979 9.64658 15.2194 9.64658 15.3421C9.64658 15.4648 9.67068 15.5863 9.71751 15.6997C9.76433 15.8131 9.83297 15.9161 9.91949 16.0028L12.7113 18.8026C12.7978 18.8895 12.9005 18.9585 13.0135 19.0055C13.1266 19.0526 13.2478 19.0768 13.3702 19.0768C13.4926 19.0768 13.6138 19.0526 13.7269 19.0055C13.8399 18.9585 13.9426 18.8895 14.0291 18.8026Z" fill="#A0A4A9"/>
</svg>
