<svg width="28" height="28" viewBox="0 0 28 28" fill="none" xmlns="http://www.w3.org/2000/svg">
<path fill-rule="evenodd" clip-rule="evenodd" d="M22 11.4576C22 16.1285 14.6448 25 13.9162 25C13.1876 25 6 16.1285 6 11.4576C6 6.78658 9.22179 3 13.9162 3C18.6106 3 22 6.78658 22 11.4576ZM15.0578 15.2031V12.5724H17.808C17.8956 12.5724 17.9667 12.5045 17.9667 12.4207V10.7006C17.9667 10.6168 17.8956 10.5489 17.808 10.5489H15.0578V7.91828C15.0578 7.83446 14.9868 7.76652 14.8991 7.76652H13.1009C13.0133 7.76652 12.9423 7.83446 12.9423 7.91828V10.5489H10.192C10.1044 10.5489 10.0333 10.6168 10.0333 10.7006V12.4207C10.0333 12.5045 10.1044 12.5724 10.192 12.5724H12.9423V15.2031C12.9423 15.2869 13.0133 15.3548 13.1009 15.3548H14.8991C14.9868 15.3548 15.0578 15.2869 15.0578 15.2031Z" fill="#A0A4A9"/>
</svg>
