<svg width="28" height="28" viewBox="0 0 28 28" fill="none" xmlns="http://www.w3.org/2000/svg">
<path d="M5.32963 11.6325L13.2046 3.34657C13.4156 3.12466 13.7017 3 14 3C14.2983 3 14.5844 3.12466 14.7954 3.34657L22.6704 11.6325C22.8814 11.8544 22.9999 12.1554 23 12.4693V23.8163C23 24.1302 22.8815 24.4313 22.6705 24.6533C22.4595 24.8753 22.1734 25 21.875 25H16.25V16.7141H11.75V25H6.125C5.82663 25 5.54048 24.8753 5.32951 24.6533C5.11853 24.4313 5 24.1302 5 23.8163V12.4693C5.00006 12.1554 5.11863 11.8544 5.32963 11.6325V11.6325Z" fill="black"/>
</svg>
