<svg width="26" height="26" viewBox="0 0 26 26" fill="none" xmlns="http://www.w3.org/2000/svg">
<path d="M13 1.94189C0.323008 1.94189 0.0244141 16.1525 0.0244141 18.9638C0.0244141 21.7791 5.83176 24.0581 13 24.0581C20.1663 24.0581 25.9757 21.7791 25.9757 18.9638C25.9757 16.1525 25.675 1.94189 13 1.94189Z" fill="#BEBEBE"/>
<path d="M8.57409 12.6547C7.66206 12.6629 6.91456 11.7874 6.9044 10.7007C6.89425 9.60991 7.62549 8.72022 8.53753 8.71209C9.44753 8.70397 10.1971 9.57944 10.2072 10.6702C10.2174 11.7569 9.48612 12.6446 8.57409 12.6547ZM17.5339 12.6547C18.4439 12.6527 19.1813 11.7691 19.1792 10.6824C19.1772 9.59162 18.4358 8.71209 17.5258 8.71412C16.6138 8.71616 15.8744 9.59975 15.8764 10.6905C15.8805 11.7772 16.6219 12.6568 17.5339 12.6547ZM18.2185 17.2149H7.7819C7.44471 17.2149 7.17253 16.9427 7.17253 16.6055C7.17253 16.2683 7.44471 15.9962 7.7819 15.9962H18.2205C18.5577 15.9962 18.8299 16.2683 18.8299 16.6055C18.8299 16.9427 18.5557 17.2149 18.2185 17.2149Z" fill="#2F2F2F"/>
</svg>
