<svg width="17" height="16" viewBox="0 0 17 16" fill="none" xmlns="http://www.w3.org/2000/svg">
<path d="M5.41015 0.0133603C6.40906 -0.137623 7.46723 1.00807 7.77198 2.58895C8.07673 4.16095 7.52648 5.5642 6.52757 5.72407C5.53713 5.88393 4.47049 4.73824 4.15727 3.15736C3.84405 1.58536 4.41123 0.182106 5.41015 0.0133603ZM11.4629 0.0133603C12.4703 0.182106 13.029 1.58536 12.7327 3.15736C12.411 4.73824 11.3528 5.88393 10.3539 5.72407C9.34654 5.5642 8.79629 4.16095 9.10951 2.58895C9.41426 1.00807 10.4724 -0.137623 11.4629 0.0133603ZM0.881178 4.09878C1.84623 3.66359 3.15836 4.45403 3.84405 5.83064C4.48742 7.23389 4.26732 8.7082 3.31074 9.14338C2.35415 9.57857 1.05049 8.79701 0.381722 7.40264C-0.287042 6.00827 -0.0500117 4.52508 0.881178 4.09878ZM16.1188 4.09878C17.05 4.52508 17.287 6.00827 16.6183 7.40264C15.9495 8.79701 14.6458 9.57857 13.6893 9.14338C12.7327 8.7082 12.5126 7.23389 13.1559 5.83064C13.8416 4.45403 15.1538 3.66359 16.1188 4.09878ZM14.7051 13.6729C14.739 14.5077 14.1295 15.4314 13.4014 15.7777C11.8861 16.506 10.0915 14.9962 8.40688 14.9962C6.72227 14.9962 4.91069 16.5682 3.42079 15.7777C2.57425 15.3426 1.99014 14.188 2.10019 13.2288C2.25257 11.9055 3.76786 11.195 4.66519 10.2269C5.85881 8.97464 6.70534 6.62108 8.40688 6.62108C10.1 6.62108 10.9973 8.93911 12.1401 10.2269C13.0798 11.3104 14.6458 12.2252 14.7051 13.6729Z" fill="black"/>
</svg>
