<svg width="18" height="18" viewBox="0 0 18 18" fill="none" xmlns="http://www.w3.org/2000/svg">
<path d="M4.96344 1.35336L5.85743 1.07635C6.69575 0.81705 7.5914 1.2366 7.95032 2.05636L8.66485 3.68946C8.97558 4.40051 8.80277 5.23719 8.2378 5.7574L6.66335 7.20528C6.76056 8.07175 7.06132 8.92453 7.56481 9.76363C8.04294 10.5755 8.68427 11.286 9.45083 11.8533L11.3418 11.2413C12.058 11.0102 12.839 11.2767 13.2777 11.9024L14.3021 13.36C14.8131 14.0879 14.7209 15.0913 14.0869 15.7081L13.4081 16.3693C12.7318 17.0272 11.7656 17.2664 10.8724 16.9958C8.76206 16.358 6.8237 14.4648 5.05401 11.3162C3.28182 8.16275 2.65619 5.48602 3.17796 3.28924C3.39731 2.36478 4.0761 1.62796 4.96344 1.35336V1.35336Z" fill="#D2D2D2"/>
</svg>
