<svg width="18" height="18" viewBox="0 0 18 18" fill="none" xmlns="http://www.w3.org/2000/svg">
<path d="M9.5 1C6.0875 1 3 3.61822 3 7.66751C3 10.2532 4.99062 13.2942 8.96375 16.7988C9.2725 17.0671 9.73562 17.0671 10.0444 16.7988C14.0094 13.2942 16 10.2532 16 7.66751C16 3.61822 12.9125 1 9.5 1ZM9.5 9.13111C8.60625 9.13111 7.875 8.39931 7.875 7.50489C7.875 6.61047 8.60625 5.87867 9.5 5.87867C10.3938 5.87867 11.125 6.61047 11.125 7.50489C11.125 8.39931 10.3938 9.13111 9.5 9.13111Z" fill="#D2D2D2"/>
</svg>
