<svg width="24" height="24" viewBox="0 0 24 24" fill="none" xmlns="http://www.w3.org/2000/svg">
<path d="M17.4467 11.3333H12.6667V6.55332C12.6667 6.37651 12.5964 6.20694 12.4714 6.08192C12.3464 5.9569 12.1768 5.88666 12 5.88666C11.8232 5.88666 11.6536 5.9569 11.5286 6.08192C11.4036 6.20694 11.3333 6.37651 11.3333 6.55332V11.3333H6.55332C6.37651 11.3333 6.20694 11.4036 6.08192 11.5286C5.9569 11.6536 5.88666 11.8232 5.88666 12C5.88666 12.1768 5.9569 12.3464 6.08192 12.4714C6.20694 12.5964 6.37651 12.6667 6.55332 12.6667H11.3333V17.4467C11.3333 17.6235 11.4036 17.793 11.5286 17.9181C11.6536 18.0431 11.8232 18.1133 12 18.1133C12.1768 18.1133 12.3464 18.0431 12.4714 17.9181C12.5964 17.793 12.6667 17.6235 12.6667 17.4467V12.6667H17.4467C17.6235 12.6667 17.793 12.5964 17.9181 12.4714C18.0431 12.3464 18.1133 12.1768 18.1133 12C18.1133 11.8232 18.0431 11.6536 17.9181 11.5286C17.793 11.4036 17.6235 11.3333 17.4467 11.3333Z" fill="#0058DD"/>
<path d="M12 1.33331C9.89032 1.33331 7.82803 1.9589 6.0739 3.13097C4.31978 4.30304 2.9526 5.96894 2.14527 7.91802C1.33793 9.8671 1.1267 12.0118 1.53827 14.0809C1.94985 16.1501 2.96575 18.0507 4.45751 19.5425C5.94927 21.0342 7.84989 22.0501 9.91902 22.4617C11.9882 22.8733 14.1329 22.662 16.0819 21.8547C18.031 21.0474 19.6969 19.6802 20.869 17.9261C22.0411 16.1719 22.6667 14.1096 22.6667 12C22.6667 9.171 21.5428 6.4579 19.5425 4.45751C17.5421 2.45712 14.829 1.33331 12 1.33331ZM12 21.3333C10.154 21.3333 8.34952 20.7859 6.81466 19.7604C5.2798 18.7348 4.08353 17.2771 3.37711 15.5717C2.67069 13.8662 2.48586 11.9896 2.84599 10.1791C3.20612 8.36865 4.09503 6.70561 5.40032 5.40032C6.70561 4.09503 8.36865 3.20611 10.1791 2.84598C11.9896 2.48585 13.8663 2.67069 15.5717 3.3771C17.2771 4.08352 18.7348 5.2798 19.7604 6.81466C20.7859 8.34952 21.3333 10.154 21.3333 12C21.3333 14.4753 20.35 16.8493 18.5996 18.5996C16.8493 20.35 14.4753 21.3333 12 21.3333Z" fill="#0058DD"/>
</svg>
