<svg width="24" height="24" viewBox="0 0 24 24" fill="none" xmlns="http://www.w3.org/2000/svg">
<g clip-path="url(#clip0_1318_30)">
<path d="M20.4728 3.525C19.3619 2.40727 18.0407 1.52034 16.5852 0.915347C15.1297 0.310352 13.5688 -0.000741533 11.9925 1.32727e-06C5.35835 1.32727e-06 0 5.37 0 12C0 18.63 5.35835 24 11.9925 24C17.4102 24 21.9564 20.4181 23.455 15.4971C23.5311 15.247 23.3399 15 23.0784 15H20.8975C20.643 15 20.418 15.1614 20.3222 15.3971C19.6773 16.9834 18.5909 18.3555 17.1878 19.3483C15.6688 20.4229 13.8536 21.0001 11.9925 21C7.02439 21 2.98687 16.965 2.98687 12C2.98687 7.035 7.02439 3 11.9925 3C14.4841 3 16.7054 4.035 18.3265 5.67L14.6893 9.30487C14.2481 9.74579 14.5604 10.5 15.1841 10.5H23.3C23.6866 10.5 24 10.1866 24 9.8V1.44789C24 0.913436 23.3539 0.645696 22.9759 1.02349L20.4728 3.525Z" fill="#0058DD"/>
</g>
<defs>
<clipPath id="clip0_1318_30">
<rect width="24" height="24" fill="white"/>
</clipPath>
</defs>
</svg>
