<svg width="24" height="24" viewBox="0 0 24 24" fill="none" xmlns="http://www.w3.org/2000/svg">
<path d="M21.1899 21.19L20.4099 20.41L17.9999 18L13.4099 13.41L3.58989 3.58999L2.80989 2.80999C2.71738 2.71729 2.60749 2.64374 2.48652 2.59356C2.36555 2.54338 2.23586 2.51755 2.10489 2.51755C1.97393 2.51755 1.84424 2.54338 1.72327 2.59356C1.6023 2.64374 1.49241 2.71729 1.39989 2.80999C0.999895 3.19999 0.999895 3.82999 1.38989 4.21999L2.99989 5.82999V19C2.99989 20.1 3.89989 21 4.99989 21H18.1699L19.7799 22.61C20.1699 23 20.7999 23 21.1899 22.61C21.5799 22.22 21.5799 21.58 21.1899 21.19V21.19ZM6.01989 18C5.59989 18 5.36989 17.52 5.62989 17.19L8.11989 13.99C8.16599 13.931 8.22475 13.8831 8.29184 13.8498C8.35893 13.8166 8.43263 13.7988 8.5075 13.7979C8.58237 13.7969 8.6565 13.8128 8.72441 13.8443C8.79233 13.8758 8.8523 13.9222 8.89989 13.98L10.9999 16.51L12.1699 15L15.1699 18H6.01989ZM20.9999 18.17L5.82989 2.99999H18.9999C20.0999 2.99999 20.9999 3.89999 20.9999 4.99999V18.17Z" fill="black"/>
</svg>
