<?xml version="1.0" encoding="utf-8"?>
<!-- Svg Vector Icons : http://www.onlinewebfonts.com/icon -->
<!DOCTYPE svg PUBLIC "-//W3C//DTD SVG 1.1//EN" "http://www.w3.org/Graphics/SVG/1.1/DTD/svg11.dtd">
<svg version="1.1" xmlns="http://www.w3.org/2000/svg" xmlns:xlink="http://www.w3.org/1999/xlink" x="0px" y="0px" viewBox="0 0 1000 1000" enable-background="new 0 0 1000 1000" xml:space="preserve">
<metadata> Svg Vector Icons : http://www.onlinewebfonts.com/icon </metadata>
<g><path d="M692.3,577.7c44.2,0,75.3,9.8,101.4,26.2c22.9,14.7,40.9,32.7,55.6,55.6c3.3,4.9,8.2,11.5,9.8,18c1.6,4.9,3.3,8.2,4.9,13.1c9.8,21.3,16.3,62.2,8.2,91.6c-1.6,4.9-1.6,9.8-3.3,16.4c-3.3,13.1-8.2,26.2-14.7,36c-4.9,6.5-8.2,13.1-13.1,19.6c11.5,0,19.6,11.5,26.2,18c14.7,14.7,29.5,29.5,44.2,44.2c8.2,8.2,18,14.7,21.3,24.5c6.5,14.7,0,32.7-8.2,39.3c-4.9,3.3-8.2,6.5-14.7,8.2c-9.8,3.3-21.3,0-27.8-4.9c-3.3-3.3-6.5-6.5-9.8-9.8c-6.5-6.5-11.5-11.5-18-18c-11.5-11.5-21.3-21.3-32.7-32.7c-4.9-4.9-11.5-9.8-16.4-16.4c-1.6-3.3-3.3-6.5-4.9-9.8c0-1.6,0-3.3-1.6-4.9c-1.6,3.3-6.5,4.9-9.8,6.5c-6.5,3.3-11.5,6.5-18,9.8c-8.2,3.3-18,8.2-27.8,11.5c-6.5,1.6-14.7,3.3-21.3,4.9c-4.9,1.6-9.8,0-14.7,1.6c-4.9,1.6-13.1,1.6-16.3,0c-3.3,0-6.5,0-9.8,0c-9.8-1.6-19.6-1.6-27.8-4.9c-9.8-3.3-19.6-6.5-29.4-11.5c-9.8-4.9-19.6-11.5-27.8-18c-29.4-21.3-50.7-49.1-63.8-88.4c-3.3-9.8-4.9-19.6-6.5-29.4c-1.6-4.9,0-9.8-1.6-14.7c-1.6-6.5,0-21.3,0-26.2c1.6-4.9,0-9.8,1.6-14.7c3.3-13.1,6.5-24.5,11.5-36c18-42.5,50.7-75.3,93.3-93.3c11.5-4.9,24.5-8.2,37.6-11.5c4.9,0,11.5-1.6,16.4-1.6C688.9,577.7,692.2,579.3,692.3,577.7L692.3,577.7L692.3,577.7z M693.9,646.4c-4.9,0-9.8,1.6-13.1,1.6c-6.5,1.6-14.7,3.3-19.6,6.5c-27.8,11.5-47.4,32.7-60.5,62.2c-3.3,6.5-3.3,13.1-4.9,21.3c-3.3,13.1,0,32.7,3.3,44.2c1.6,6.5,3.3,11.5,6.5,18c9.8,22.9,29.4,42.5,52.4,52.4c6.5,3.3,14.7,6.5,24.5,8.2c4.9,1.6,8.2,0,13.1,1.6c3.3,0,9.8,1.6,13.1,0c3.3,0,6.5,0,9.8-1.6c6.5-1.6,14.7-3.3,21.3-4.9c27.8-11.5,49.1-31.1,60.5-58.9c3.3-6.5,4.9-14.7,6.5-21.3c1.6-4.9,0-8.2,1.6-13.1c1.6-4.9,0-16.4,0-21.3c-1.6-9.8-4.9-19.6-8.2-27.8c-14.7-34.4-39.3-54-78.5-63.8C713.5,644.8,703.7,646.4,693.9,646.4L693.9,646.4L693.9,646.4z"/><path d="M590.8,990H188.3c-70.4,0-126-57.3-126-126V136c0-70.4,57.3-126,126-126h623.3c70.4,0,126,57.3,126,126v458.1h-72V136c0-29.5-24.5-54-54-54H188.3c-29.5,0-54,24.5-54,54V864c0,29.4,24.5,54,54,54h402.5L590.8,990L590.8,990z"/><path d="M715.1,265.2h-445c-21.3,0-39.3-18-39.3-39.3c0-21.3,18-39.3,39.3-39.3h445c21.3,0,39.3,18,39.3,39.3C754.4,248.9,736.4,265.2,715.1,265.2z"/><path d="M582.6,471.4H270.1c-21.3,0-39.3-18-39.3-39.3c0-21.3,18-39.3,39.3-39.3h312.5c21.3,0,39.3,18,39.3,39.3C620.3,453.4,603.9,471.4,582.6,471.4z"/><path d="M432.1,657.9h-162c-21.3,0-39.3-18-39.3-39.3c0-21.3,18-39.3,39.3-39.3h162c21.3,0,39.3,18,39.3,39.3C469.8,639.9,453.4,657.9,432.1,657.9z"/></g>
</svg>