<svg width="19" height="20" viewBox="0 0 19 20" fill="none" xmlns="http://www.w3.org/2000/svg">
<path d="M7.55228 0.958123V0.950026L7.60226 0.950001C8.88321 0.949366 10.1371 1.31685 11.2131 2.00828C12.2891 2.69972 13.1415 3.68568 13.6676 4.84761C14.1937 6.00954 14.3713 7.29795 14.1788 8.55787C13.9885 9.80319 13.4448 10.9682 12.6121 11.9162L18.6406 18.7232C18.8782 18.9914 18.8536 19.4013 18.5857 19.6392C18.3175 19.8774 17.9069 19.853 17.6688 19.5847L11.6591 12.8118C10.8327 13.4455 9.86795 13.877 8.84261 14.0711C7.80189 14.2681 6.7289 14.2149 5.71303 13.9159C4.69715 13.6169 3.76777 13.0808 3.00231 12.3521C2.23685 11.6235 1.65747 10.7234 1.31245 9.72693C0.96744 8.73042 0.866781 7.66631 1.01887 6.62325C1.17096 5.5802 1.57139 4.58841 2.18679 3.7305C2.80219 2.87259 3.61474 2.17339 4.55673 1.69113C5.48389 1.21647 6.51005 0.965482 7.55228 0.958123ZM7.60228 12.8847C9.02099 12.8847 10.3815 12.324 11.3846 11.3262C12.3877 10.3284 12.9512 8.9751 12.9512 7.56407C12.9512 6.15304 12.3877 4.79976 11.3846 3.80193C10.3815 2.80409 9.02099 2.24347 7.60228 2.24347C6.18358 2.24347 4.82303 2.80409 3.81993 3.80193C2.81684 4.79976 2.25336 6.15304 2.25336 7.56407C2.25336 8.9751 2.81684 10.3284 3.81993 11.3262C4.82303 12.324 6.18358 12.8847 7.60228 12.8847Z" fill="#C5C5C5" stroke="#C5C5C5" stroke-width="0.1"/>
</svg>
