<svg width="20" height="21" viewBox="0 0 20 21" fill="none" xmlns="http://www.w3.org/2000/svg">
<path d="M7.40228 0.810802V0.8001L7.60218 0.800001C8.91186 0.799351 10.1939 1.17507 11.2942 1.88209C12.3945 2.58912 13.2662 3.59738 13.8043 4.78573C14.3424 5.9741 14.5239 7.29187 14.327 8.58053C14.1391 9.81062 13.614 10.964 12.8112 11.9148L18.7529 18.6237C19.0453 18.9539 19.0151 19.4585 18.6853 19.7513C18.3551 20.0446 17.8497 20.0145 17.5566 19.6842L11.6386 13.0148C10.8189 13.617 9.87298 14.0287 8.87051 14.2184C7.80643 14.4199 6.70937 14.3655 5.67067 14.0598C4.63198 13.7541 3.68165 13.2059 2.89889 12.4608C2.11612 11.7157 1.52358 10.7952 1.17071 9.77601C0.817839 8.75681 0.714884 7.66845 0.870441 6.60161C1.026 5.53478 1.43555 4.52044 2.06491 3.64307C2.69426 2.7657 3.52518 2.05073 4.48837 1.55761C5.3922 1.0949 6.38799 0.840078 7.40228 0.810802ZM7.60228 12.7347C8.98146 12.7347 10.3039 12.1897 11.2788 11.2199C12.2537 10.2501 12.8012 8.93506 12.8012 7.56407C12.8012 6.19308 12.2537 4.87803 11.2788 3.90827C10.3039 2.93848 8.98146 2.39347 7.60228 2.39347C6.2231 2.39347 4.90062 2.93848 3.92572 3.90827C2.95085 4.87803 2.40336 6.19308 2.40336 7.56407C2.40336 8.93506 2.95085 10.2501 3.92572 11.2199C4.90062 12.1897 6.2231 12.7347 7.60228 12.7347Z" fill="#C5C5C5" stroke="#C5C5C5" stroke-width="0.4"/>
</svg>
