<svg width="18" height="18" viewBox="0 0 18 18" fill="none" xmlns="http://www.w3.org/2000/svg">
<path d="M10.365 16.5H7.63497C7.46392 16.5 7.298 16.4416 7.16473 16.3344C7.03145 16.2271 6.93883 16.0776 6.90222 15.9105L6.59697 14.4975C6.18977 14.3191 5.80365 14.096 5.44572 13.8322L4.06797 14.271C3.9049 14.323 3.72894 14.3177 3.56931 14.2559C3.40969 14.1941 3.27601 14.0795 3.19047 13.9312L1.82247 11.568C1.73783 11.4196 1.70606 11.2469 1.73236 11.0781C1.75865 10.9093 1.84146 10.7544 1.96722 10.6387L3.03597 9.66375C2.98737 9.22208 2.98737 8.77642 3.03597 8.33475L1.96722 7.362C1.84128 7.24633 1.75836 7.09131 1.73206 6.92234C1.70576 6.75337 1.73764 6.58048 1.82247 6.432L3.18747 4.06725C3.27301 3.91899 3.40669 3.80444 3.56631 3.74264C3.72594 3.68084 3.9019 3.6755 4.06497 3.7275L5.44272 4.16625C5.62572 4.03125 5.81622 3.90525 6.01272 3.79125C6.20247 3.68475 6.39747 3.588 6.59697 3.50175L6.90297 2.09025C6.9394 1.92315 7.03185 1.77352 7.16498 1.66616C7.29812 1.55881 7.46395 1.50018 7.63497 1.5H10.365C10.536 1.50018 10.7018 1.55881 10.835 1.66616C10.9681 1.77352 11.0605 1.92315 11.097 2.09025L11.406 3.5025C11.8127 3.68195 12.1987 3.90501 12.5572 4.16775L13.9357 3.729C14.0987 3.67719 14.2745 3.68263 14.434 3.74442C14.5934 3.80621 14.727 3.92065 14.8125 4.06875L16.1775 6.4335C16.3515 6.73875 16.2915 7.125 16.0327 7.36275L14.964 8.33775C15.0126 8.77942 15.0126 9.22508 14.964 9.66675L16.0327 10.6417C16.2915 10.8802 16.3515 11.2657 16.1775 11.571L14.8125 13.9357C14.7269 14.084 14.5933 14.1986 14.4336 14.2604C14.274 14.3222 14.0981 14.3275 13.935 14.2755L12.5572 13.8367C12.1996 14.1003 11.8137 14.3231 11.4067 14.5012L11.097 15.9105C11.0604 16.0775 10.9679 16.2269 10.8348 16.3341C10.7016 16.4413 10.5359 16.4999 10.365 16.5V16.5ZM8.99697 6C8.20133 6 7.43826 6.31607 6.87565 6.87868C6.31304 7.44129 5.99697 8.20435 5.99697 9C5.99697 9.79565 6.31304 10.5587 6.87565 11.1213C7.43826 11.6839 8.20133 12 8.99697 12C9.79262 12 10.5557 11.6839 11.1183 11.1213C11.6809 10.5587 11.997 9.79565 11.997 9C11.997 8.20435 11.6809 7.44129 11.1183 6.87868C10.5557 6.31607 9.79262 6 8.99697 6V6Z" fill="#6D6D6D"/>
</svg>
