<svg width="14" height="14" viewBox="0 0 14 14" fill="none" xmlns="http://www.w3.org/2000/svg">
<path d="M7 14C3.13359 14 0 10.8664 0 7C0 3.13359 3.13359 0 7 0C10.8664 0 14 3.13359 14 7C14 10.8664 10.8664 14 7 14ZM6.34375 7C6.34375 7.21875 6.45312 7.42383 6.63633 7.52227L9.26133 9.27227C9.56211 9.49648 9.96953 9.41445 10.1473 9.11367C10.3715 8.81289 10.2895 8.40547 9.98867 8.20312L7.65625 6.65V3.28125C7.65625 2.91758 7.36367 2.625 6.97539 2.625C6.63633 2.625 6.31914 2.91758 6.31914 3.28125L6.34375 7Z" fill="#D2D2D2"/>
</svg>
