<svg width="27" height="21" viewBox="0 0 27 21" fill="none" xmlns="http://www.w3.org/2000/svg">
<g clip-path="url(#clip0_832_3)">
<path fill-rule="evenodd" clip-rule="evenodd" d="M16.2 1.96875C16.2 0.881426 15.293 0 14.175 0H2.025C0.906609 0 0 0.881426 0 1.96875V19.0312C0 20.1182 0.906609 21 2.025 21H6.075V17.7188C6.075 16.6318 6.98203 15.75 8.1 15.75C9.21797 15.75 10.125 16.6318 10.125 17.7188V21H14.175C14.812 21 15.3773 20.717 15.7486 20.2699C14.3606 18.9574 13.5 17.124 13.5 15.0938C13.5 12.8502 14.5505 10.8486 16.2 9.52383V1.96875ZM3.375 11.8125C3.00206 11.8125 2.7 11.5172 2.7 11.1562V9.84375C2.7 9.48281 3.00206 9.1875 3.375 9.1875H4.725C5.09625 9.1875 5.4 9.48281 5.4 9.84375V11.1562C5.4 11.5172 5.09625 11.8125 4.725 11.8125H3.375ZM6.75 9.84375C6.75 9.48281 7.05375 9.1875 7.425 9.1875H8.775C9.14625 9.1875 9.45 9.48281 9.45 9.84375V11.1562C9.45 11.5172 9.14625 11.8125 8.775 11.8125H7.425C7.05375 11.8125 6.75 11.5172 6.75 11.1562V9.84375ZM11.475 11.8125C11.1038 11.8125 10.8 11.5172 10.8 11.1562V9.84375C10.8 9.48281 11.1038 9.1875 11.475 9.1875H12.825C13.1962 9.1875 13.5 9.48281 13.5 9.84375V11.1562C13.5 11.5172 13.1962 11.8125 12.825 11.8125H11.475ZM2.7 4.59375C2.7 4.23281 3.00206 3.9375 3.375 3.9375H4.725C5.09625 3.9375 5.4 4.23281 5.4 4.59375V5.90625C5.4 6.26719 5.09625 6.5625 4.725 6.5625H3.375C3.00206 6.5625 2.7 6.26719 2.7 5.90625V4.59375ZM7.425 6.5625C7.05375 6.5625 6.75 6.26719 6.75 5.90625V4.59375C6.75 4.23281 7.05375 3.9375 7.425 3.9375H8.775C9.14625 3.9375 9.45 4.23281 9.45 4.59375V5.90625C9.45 6.26719 9.14625 6.5625 8.775 6.5625H7.425ZM10.8 4.59375C10.8 4.23281 11.1038 3.9375 11.475 3.9375H12.825C13.1962 3.9375 13.5 4.23281 13.5 4.59375V5.90625C13.5 6.26719 13.1962 6.5625 12.825 6.5625H11.475C11.1038 6.5625 10.8 6.26719 10.8 5.90625V4.59375ZM20.925 21C24.2789 21 27 18.3545 27 15.0938C27 11.833 24.2789 9.1875 20.925 9.1875C17.5711 9.1875 14.85 11.833 14.85 15.0938C14.85 18.3545 17.5711 21 20.925 21ZM19.092 12.7475C19.2406 12.7449 19.3845 12.8001 19.4932 12.9014L20.9999 14.4081L22.5066 12.9014C22.5591 12.8451 22.6225 12.7998 22.6928 12.7685C22.7632 12.7371 22.8391 12.7203 22.9162 12.7189C22.9932 12.7176 23.0697 12.7317 23.1411 12.7606C23.2125 12.7894 23.2774 12.8324 23.3319 12.8868C23.3864 12.9413 23.4293 13.0062 23.4582 13.0776C23.487 13.1491 23.5012 13.2256 23.4998 13.3026C23.4985 13.3796 23.4816 13.4556 23.4503 13.5259C23.4189 13.5963 23.3737 13.6596 23.3173 13.7121L21.8106 15.2188L23.3173 16.7256C23.3737 16.7781 23.4189 16.8414 23.4503 16.9118C23.4816 16.9821 23.4985 17.0581 23.4998 17.1351C23.5012 17.2121 23.487 17.2886 23.4582 17.3601C23.4293 17.4315 23.3864 17.4964 23.3319 17.5508C23.2774 17.6053 23.2125 17.6482 23.1411 17.6771C23.0697 17.7059 22.9932 17.7201 22.9162 17.7188C22.8391 17.7174 22.7632 17.7005 22.6928 17.6692C22.6225 17.6378 22.5591 17.5926 22.5066 17.5363L20.9999 16.0296L19.4932 17.5363C19.4407 17.5926 19.3774 17.6378 19.307 17.6692C19.2366 17.7005 19.1607 17.7174 19.0837 17.7188C19.0066 17.7201 18.9301 17.7059 18.8587 17.6771C18.7873 17.6482 18.7224 17.6053 18.6679 17.5508C18.6135 17.4964 18.5705 17.4315 18.5417 17.3601C18.5128 17.2886 18.4986 17.2121 18.5 17.1351C18.5014 17.0581 18.5182 16.9821 18.5496 16.9118C18.5809 16.8414 18.6261 16.7781 18.6825 16.7256L20.1892 15.2188L18.6825 13.7121C18.5812 13.6034 18.526 13.4596 18.5286 13.311C18.5312 13.1624 18.5914 13.0206 18.6965 12.9155C18.8016 12.8104 18.9434 12.7502 19.092 12.7475Z" fill="#DD0000"/>
</g>
<defs>
<clipPath id="clip0_832_3">
<rect width="27" height="21" fill="white"/>
</clipPath>
</defs>
</svg>
