<svg width="27" height="21" viewBox="0 0 27 21" fill="none" xmlns="http://www.w3.org/2000/svg">
<g clip-path="url(#clip0_832_7)">
<path d="M14.175 0C15.293 0 16.2 0.881426 16.2 1.96875V9.52383C14.5505 10.8486 13.5 12.8502 13.5 15.0938C13.5 17.124 14.3606 18.9574 15.7486 20.2699C15.3773 20.717 14.812 21 14.175 21H10.125V17.7188C10.125 16.6318 9.21797 15.75 8.1 15.75C6.98203 15.75 6.075 16.6318 6.075 17.7188V21H2.025C0.906609 21 0 20.1182 0 19.0312V1.96875C0 0.881426 0.906609 0 2.025 0H14.175ZM2.7 11.1562C2.7 11.5172 3.00206 11.8125 3.375 11.8125H4.725C5.09625 11.8125 5.4 11.5172 5.4 11.1562V9.84375C5.4 9.48281 5.09625 9.1875 4.725 9.1875H3.375C3.00206 9.1875 2.7 9.48281 2.7 9.84375V11.1562ZM7.425 9.1875C7.05375 9.1875 6.75 9.48281 6.75 9.84375V11.1562C6.75 11.5172 7.05375 11.8125 7.425 11.8125H8.775C9.14625 11.8125 9.45 11.5172 9.45 11.1562V9.84375C9.45 9.48281 9.14625 9.1875 8.775 9.1875H7.425ZM10.8 11.1562C10.8 11.5172 11.1038 11.8125 11.475 11.8125H12.825C13.1963 11.8125 13.5 11.5172 13.5 11.1562V9.84375C13.5 9.48281 13.1963 9.1875 12.825 9.1875H11.475C11.1038 9.1875 10.8 9.48281 10.8 9.84375V11.1562ZM3.375 3.9375C3.00206 3.9375 2.7 4.23281 2.7 4.59375V5.90625C2.7 6.26719 3.00206 6.5625 3.375 6.5625H4.725C5.09625 6.5625 5.4 6.26719 5.4 5.90625V4.59375C5.4 4.23281 5.09625 3.9375 4.725 3.9375H3.375ZM6.75 5.90625C6.75 6.26719 7.05375 6.5625 7.425 6.5625H8.775C9.14625 6.5625 9.45 6.26719 9.45 5.90625V4.59375C9.45 4.23281 9.14625 3.9375 8.775 3.9375H7.425C7.05375 3.9375 6.75 4.23281 6.75 4.59375V5.90625ZM11.475 3.9375C11.1038 3.9375 10.8 4.23281 10.8 4.59375V5.90625C10.8 6.26719 11.1038 6.5625 11.475 6.5625H12.825C13.1963 6.5625 13.5 6.26719 13.5 5.90625V4.59375C13.5 4.23281 13.1963 3.9375 12.825 3.9375H11.475ZM27 15.0938C27 18.3545 24.2789 21 20.925 21C17.5711 21 14.85 18.3545 14.85 15.0938C14.85 11.833 17.5711 9.1875 20.925 9.1875C24.2789 9.1875 27 11.833 27 15.0938ZM22.8108 13.3178L20.25 15.8074L19.0392 14.6303C18.7777 14.3719 18.3473 14.3719 18.0858 14.6303C17.82 14.8846 17.82 15.3029 18.0858 15.5572L19.7733 17.1979C20.0348 17.4562 20.4652 17.4562 20.7267 17.1979L23.7642 14.2447C24.03 13.9904 24.03 13.5721 23.7642 13.3178C23.5027 13.0594 23.0723 13.0594 22.8108 13.3178V13.3178Z" fill="#0058DD"/>
</g>
<defs>
<clipPath id="clip0_832_7">
<rect width="27" height="21" fill="white"/>
</clipPath>
</defs>
</svg>
