<svg width="35" height="30" viewBox="0 0 35 30" fill="none" xmlns="http://www.w3.org/2000/svg">
<g filter="url(#filter0_d_260_10)">
<path d="M10.3448 2.06897C10.3448 0.517241 11.3793 0 12.4138 0H17.5862C19.2414 0 19.6552 1.37931 19.6552 2.06897V10.3448H28.4483C29.6897 10.3448 30 11.3793 30 11.8966V17.5862C30 19.2414 28.6207 19.6552 27.931 19.6552H19.6552V27.931C19.6552 29.5862 18.2759 30 17.5862 30H12.4138C10.7586 30 10.3448 28.6207 10.3448 27.931V19.6552H2.06897C0.413793 19.6552 0 18.2759 0 17.5862V12.4138C0 10.7586 1.37931 10.3448 2.06897 10.3448H10.3448V2.06897Z" fill="#E0E0E0"/>
</g>
<g filter="url(#filter1_b_260_10)">
<path d="M20.6831 6.01587C21.9171 5.83657 23.2242 7.19708 23.6007 9.07438C23.9771 10.9411 23.2974 12.6075 22.0635 12.7973C20.84 12.9872 19.5224 11.6267 19.1355 9.74936C18.7485 7.88261 19.4492 6.21625 20.6831 6.01587ZM28.16 6.01587C29.4044 6.21625 30.0946 7.88261 29.7286 9.74936C29.3312 11.6267 28.0241 12.9872 26.7901 12.7973C25.5457 12.6075 24.866 10.9411 25.2529 9.07438C25.6294 7.19708 26.9365 5.83657 28.16 6.01587ZM15.0885 10.8673C16.2806 10.3505 17.9015 11.2892 18.7485 12.9239C19.5433 14.5903 19.2714 16.341 18.0897 16.8578C16.9081 17.3746 15.2977 16.4465 14.4715 14.7906C13.6454 13.1348 13.9382 11.3735 15.0885 10.8673ZM33.9115 10.8673C35.0618 11.3735 35.3546 13.1348 34.5285 14.7906C33.7023 16.4465 32.0919 17.3746 30.9103 16.8578C29.7286 16.341 29.4567 14.5903 30.2515 12.9239C31.0985 11.2892 32.7194 10.3505 33.9115 10.8673ZM32.1651 22.2365C32.207 23.2279 31.454 24.3248 30.5547 24.7361C28.6829 25.6009 26.466 23.808 24.385 23.808C22.304 23.808 20.0661 25.6747 18.2257 24.7361C17.18 24.2193 16.4584 22.8482 16.5944 21.7092C16.7826 20.1378 18.6544 19.294 19.7629 18.1445C21.2374 16.6574 22.2831 13.8625 24.385 13.8625C26.4764 13.8625 27.5849 16.6152 28.9966 18.1445C30.1573 19.4311 32.0919 20.5174 32.1651 22.2365Z" fill="#CBCBCB"/>
</g>
<defs>
<filter id="filter0_d_260_10" x="0" y="0" width="30" height="30" filterUnits="userSpaceOnUse" color-interpolation-filters="sRGB">
<feFlood flood-opacity="0" result="BackgroundImageFix"/>
<feColorMatrix in="SourceAlpha" type="matrix" values="0 0 0 0 0 0 0 0 0 0 0 0 0 0 0 0 0 0 127 0" result="hardAlpha"/>
<feOffset/>
<feComposite in2="hardAlpha" operator="out"/>
<feColorMatrix type="matrix" values="0 0 0 0 0 0 0 0 0 0 0 0 0 0 0 0 0 0 0.09 0"/>
<feBlend mode="normal" in2="BackgroundImageFix" result="effect1_dropShadow_260_10"/>
<feBlend mode="normal" in="SourceGraphic" in2="effect1_dropShadow_260_10" result="shape"/>
</filter>
<filter id="filter1_b_260_10" x="11" y="3" width="27" height="25" filterUnits="userSpaceOnUse" color-interpolation-filters="sRGB">
<feFlood flood-opacity="0" result="BackgroundImageFix"/>
<feGaussianBlur in="BackgroundImage" stdDeviation="1.5"/>
<feComposite in2="SourceAlpha" operator="in" result="effect1_backgroundBlur_260_10"/>
<feBlend mode="normal" in="SourceGraphic" in2="effect1_backgroundBlur_260_10" result="shape"/>
</filter>
</defs>
</svg>
