<svg width="212" height="166" viewBox="0 0 212 166" fill="none" xmlns="http://www.w3.org/2000/svg">
<path opacity="0.85" d="M57.2414 11.4483C57.2414 2.86207 62.9655 0 68.6897 0H97.3103C106.469 0 108.759 7.63218 108.759 11.4483V57.2414H157.414C164.283 57.2414 166 62.9655 166 65.8276V97.3103C166 106.469 158.368 108.759 154.552 108.759H108.759V154.552C108.759 163.71 101.126 166 97.3103 166H68.6897C59.531 166 57.2414 158.368 57.2414 154.552V108.759H11.4483C2.28965 108.759 0 101.126 0 97.3103V68.6897C0 59.531 7.63218 57.2414 11.4483 57.2414H57.2414V11.4483Z" fill="url(#paint0_linear_489_285)"/>
<g filter="url(#filter0_bi_489_285)">
<path d="M113.827 23.1069C122.288 21.899 131.252 31.0646 133.833 43.7116C136.415 56.2876 131.754 67.5136 123.292 68.7925C114.903 70.0714 105.868 60.9059 103.215 48.2589C100.561 35.6829 105.366 24.4568 113.827 23.1069ZM165.097 23.1069C173.63 24.4568 178.363 35.6829 175.853 48.2589C173.128 60.9059 164.165 70.0714 155.704 68.7925C147.171 67.5136 142.51 56.2876 145.163 43.7116C147.744 31.0646 156.708 21.899 165.097 23.1069ZM75.4641 55.7902C83.6386 52.3087 94.7532 58.6323 100.561 69.6451C106.011 80.8712 104.147 92.6656 96.0439 96.1471C87.941 99.6286 76.8982 93.3761 71.2334 82.2211C65.5686 71.0661 67.5764 59.2007 75.4641 55.7902ZM204.536 55.7902C212.424 59.2007 214.431 71.0661 208.767 82.2211C203.102 93.3761 192.059 99.6286 183.956 96.1471C175.853 92.6656 173.989 80.8712 179.439 69.6451C185.247 58.6323 196.361 52.3087 204.536 55.7902ZM192.561 132.383C192.848 139.062 187.685 146.451 181.518 149.222C168.683 155.048 153.481 142.97 139.211 142.97C124.942 142.97 109.596 155.546 96.9761 149.222C89.8054 145.741 84.8577 136.504 85.7898 128.83C87.0806 118.244 99.916 112.56 107.517 104.815C117.628 94.7971 124.798 75.9687 139.211 75.9687C153.553 75.9687 161.153 94.5129 170.834 104.815C178.793 113.483 192.059 120.802 192.561 132.383Z" fill="url(#paint1_linear_489_285)" fill-opacity="0.9"/>
</g>
<defs>
<filter id="filter0_bi_489_285" x="61" y="16" width="158" height="142" filterUnits="userSpaceOnUse" color-interpolation-filters="sRGB">
<feFlood flood-opacity="0" result="BackgroundImageFix"/>
<feGaussianBlur in="BackgroundImage" stdDeviation="3.5"/>
<feComposite in2="SourceAlpha" operator="in" result="effect1_backgroundBlur_489_285"/>
<feBlend mode="normal" in="SourceGraphic" in2="effect1_backgroundBlur_489_285" result="shape"/>
<feColorMatrix in="SourceAlpha" type="matrix" values="0 0 0 0 0 0 0 0 0 0 0 0 0 0 0 0 0 0 127 0" result="hardAlpha"/>
<feOffset dy="4"/>
<feGaussianBlur stdDeviation="2"/>
<feComposite in2="hardAlpha" operator="arithmetic" k2="-1" k3="1"/>
<feColorMatrix type="matrix" values="0 0 0 0 0 0 0 0 0 0 0 0 0 0 0 0 0 0 0.16 0"/>
<feBlend mode="normal" in2="shape" result="effect2_innerShadow_489_285"/>
</filter>
<linearGradient id="paint0_linear_489_285" x1="-17.7893" y1="-26.5247" x2="166.519" y2="147.045" gradientUnits="userSpaceOnUse">
<stop offset="0.127451" stop-color="#FF6B00"/>
<stop offset="0.131276" stop-color="#FF5C00"/>
<stop offset="0.637546" stop-color="#FF9D0B" stop-opacity="0.93"/>
<stop offset="0.981582" stop-color="#FF792D"/>
</linearGradient>
<linearGradient id="paint1_linear_489_285" x1="120.558" y1="56.8303" x2="225.857" y2="191.546" gradientUnits="userSpaceOnUse">
<stop stop-color="#0049D8"/>
<stop offset="1" stop-color="#0C7CFF" stop-opacity="0.89"/>
</linearGradient>
</defs>
</svg>
