<svg width="12" height="12" viewBox="0 0 12 12" fill="none" xmlns="http://www.w3.org/2000/svg">
<path d="M6.78196 1.67703C6.85633 1.7514 6.95721 1.79318 7.06239 1.79318H9.646L6.82143 4.61777C6.11417 4.05222 5.21852 3.77511 4.31456 3.84313C3.39781 3.91212 2.54264 4.33082 1.92592 5.01262C1.3092 5.69442 0.978109 6.58718 1.00112 7.50624C1.02414 8.42527 1.39951 9.30033 2.04958 9.95046C2.69965 10.6005 3.57471 10.9759 4.49377 10.9989C5.41282 11.0219 6.30557 10.6908 6.98737 10.0741C7.66914 9.45741 8.08782 8.60218 8.15687 7.68542C8.22486 6.78148 7.94774 5.88582 7.38221 5.17857L10.2068 2.35397V4.9376C10.2068 5.04278 10.2486 5.14366 10.323 5.21803C10.3973 5.29241 10.4982 5.33419 10.6034 5.33419C10.7086 5.33419 10.8094 5.29241 10.8838 5.21803C10.9582 5.14366 11 5.04278 11 4.9376V1.39659C11 1.29141 10.9582 1.19053 10.8838 1.11616C10.8094 1.04178 10.7086 1 10.6034 1H7.06239C6.95721 1 6.85633 1.04178 6.78196 1.11616C6.70758 1.19053 6.6658 1.29141 6.6658 1.39659C6.6658 1.50177 6.70758 1.60265 6.78196 1.67703ZM2.61066 5.44325C3.13395 4.91997 3.84367 4.62599 4.5837 4.62599C5.32374 4.62599 6.03346 4.91997 6.55674 5.44325C7.08002 5.96654 7.374 6.67627 7.374 7.4163C7.374 8.15637 7.08002 8.86606 6.55674 9.38935C6.03346 9.91264 5.32374 10.2066 4.5837 10.2066C3.84367 10.2066 3.13395 9.91264 2.61066 9.38935C2.08738 8.86606 1.7934 8.15637 1.7934 7.4163C1.7934 6.67627 2.08738 5.96654 2.61066 5.44325Z" fill="black" stroke="black" stroke-width="0.12"/>
</svg>
