<svg width="11" height="13" viewBox="0 0 11 13" fill="none" xmlns="http://www.w3.org/2000/svg">
<path d="M3.57293 2.5517C4.08402 2.04749 4.77722 1.76423 5.50001 1.76423C6.2228 1.76423 6.916 2.04749 7.42709 2.5517C7.93818 3.05591 8.22531 3.73977 8.22531 4.45283C8.22531 5.16589 7.93818 5.84974 7.42709 6.35395C6.916 6.85816 6.2228 7.14142 5.50001 7.14142C4.77722 7.14142 4.08402 6.85816 3.57293 6.35395C3.06184 5.84974 2.77471 5.16589 2.77471 4.45283C2.77471 3.73977 3.06184 3.05591 3.57293 2.5517ZM2.56576 2.57063C2.19654 3.1308 2.00001 3.78464 2 4.45283C1.99999 5.30881 2.32227 6.13428 2.90432 6.7691C3.47797 7.39474 4.26362 7.79127 5.11266 7.88455V9.18859H3.77076C3.66802 9.18859 3.5695 9.22885 3.49686 9.3005C3.42421 9.37215 3.3834 9.46939 3.3834 9.57072C3.3834 9.67205 3.42421 9.76923 3.49686 9.84094C3.5695 9.91259 3.66802 9.95285 3.77076 9.95285H5.11266V11.6179C5.11266 11.7192 5.15347 11.8164 5.22611 11.8881C5.29875 11.9597 5.39728 12 5.50001 12C5.60274 12 5.70127 11.9597 5.77391 11.8881C5.84655 11.8164 5.88736 11.7192 5.88736 11.6179V9.95285H7.22926C7.33199 9.95285 7.43052 9.91259 7.50316 9.84094C7.5758 9.76923 7.61662 9.67205 7.61662 9.57072C7.61662 9.46939 7.5758 9.37215 7.50316 9.3005C7.43052 9.22885 7.33199 9.18859 7.22926 9.18859H5.88736V7.88455C6.54755 7.81202 7.17348 7.55558 7.69178 7.14489C8.21984 6.72646 8.6135 6.16586 8.82502 5.53108C9.03647 4.8963 9.05674 4.21462 8.88333 3.56871C8.70992 2.9228 8.35023 2.34041 7.8479 1.89217C7.3456 1.44393 6.72225 1.1491 6.05346 1.04344C5.38467 0.937786 4.69917 1.02583 4.0801 1.29691C3.46103 1.56799 2.93498 2.01045 2.56576 2.57063Z" fill="black" stroke="black" stroke-width="0.12"/>
</svg>
