<svg width="26" height="26" viewBox="0 0 26 26" fill="none" xmlns="http://www.w3.org/2000/svg">
<path fill-rule="evenodd" clip-rule="evenodd" d="M13 26C20.1797 26 26 20.1797 26 13C26 5.8203 20.1797 0 13 0C5.8203 0 0 5.8203 0 13C0 20.1797 5.8203 26 13 26ZM17.6694 17.6694C18.8415 16.4973 19.5 14.9076 19.5 13.25C19.5 11.5924 18.8415 10.0027 17.6694 8.83058C16.4973 7.65848 14.9076 7 13.25 7C11.5924 7 10.0027 7.65848 8.83058 8.83058C7.65848 10.0027 7 11.5924 7 13.25C7 14.9076 7.65848 16.4973 8.83058 17.6694C10.0027 18.8415 11.5924 19.5 13.25 19.5C14.9076 19.5 16.4973 18.8415 17.6694 17.6694ZM17.9375 13.25C17.9389 12.2766 17.6359 11.327 17.0708 10.5344L10.5344 17.0708C11.2356 17.5693 12.0605 17.8651 12.9187 17.9259C13.7769 17.9867 14.6353 17.8101 15.3998 17.4155C16.1644 17.021 16.8055 16.4236 17.2531 15.6888C17.7008 14.9541 17.9375 14.1103 17.9375 13.25ZM15.9656 9.42917C15.0627 8.78731 13.9617 8.48597 12.8578 8.57858C11.7539 8.67119 10.7184 9.15178 9.93511 9.93511C9.15178 10.7184 8.67119 11.7539 8.57858 12.8578C8.48597 13.9617 8.78731 15.0627 9.42917 15.9656L15.9656 9.42917Z" fill="#E62F17"/>
</svg>
